<svg width="20" height="20" viewBox="0 0 20 20" fill="none" xmlns="http://www.w3.org/2000/svg">
<rect x="4.16667" y="4.16667" width="11.6667" height="11.6667" fill="#F0CA42"/>
<path d="M9.58333 13.75H10.4167V10.4167H13.75V9.58333H10.4167V6.25H9.58333V9.58333H6.24999V10.4167H9.58333V13.75ZM4.67947 16.6667C4.29593 16.6667 3.97569 16.5382 3.71874 16.2812C3.4618 16.0243 3.33333 15.7041 3.33333 15.3205V4.67948C3.33333 4.29594 3.4618 3.9757 3.71874 3.71875C3.97569 3.46181 4.29593 3.33333 4.67947 3.33333H15.3205C15.7041 3.33333 16.0243 3.46181 16.2812 3.71875C16.5382 3.9757 16.6667 4.29594 16.6667 4.67948V15.3205C16.6667 15.7041 16.5382 16.0243 16.2812 16.2812C16.0243 16.5382 15.7041 16.6667 15.3205 16.6667H4.67947ZM4.67947 15.8333H15.3205C15.4487 15.8333 15.5662 15.7799 15.6731 15.6731C15.7799 15.5662 15.8333 15.4487 15.8333 15.3205V4.67948C15.8333 4.55129 15.7799 4.43376 15.6731 4.32692C15.5662 4.22008 15.4487 4.16667 15.3205 4.16667H4.67947C4.55128 4.16667 4.43376 4.22008 4.32691 4.32692C4.22008 4.43376 4.16666 4.55129 4.16666 4.67948V15.3205C4.16666 15.4487 4.22008 15.5662 4.32691 15.6731C4.43376 15.7799 4.55128 15.8333 4.67947 15.8333Z" fill="#1A1A1A"/>
</svg>
