<svg width="210" height="141" viewBox="0 0 210 141" fill="none" xmlns="http://www.w3.org/2000/svg"><path d="M169.645 35.9863c-2.129-.6245-4.166-1.8438-5.855-3.5456-1.69-1.7018-2.901-3.7524-3.521-5.8966-.62 2.1442-1.829 4.1948-3.52 5.8966-.715.7198-1.492 1.3534-2.311 1.8921l6.946 8.4078c.632-1.1519 1.441-2.2374 2.406-3.2088 1.689-1.7008 3.726-2.9211 5.855-3.5455Z" fill="#D3C7D0"/><path d="M161.875 43.8597c.627-1.3171 1.499-2.5601 2.584-3.6519 2.362-2.3767 5.434-3.7429 8.425-3.7429v-.9534c-2.993 0-6.065-1.3643-8.425-3.7429-2.36-2.3787-3.716-5.4723-3.716-8.485h-.947c0 3.0155-1.355 6.1092-3.716 8.485-.71.7134-1.483 1.3358-2.298 1.8576l4.484 4.6761 3.609 5.5574Zm-7.437-9.5264c.82-.5388 1.596-1.1725 2.311-1.8926 1.689-1.7017 2.9-3.7524 3.52-5.8966.62 2.1442 1.831 4.1949 3.521 5.8966 1.689 1.7018 3.726 2.9211 5.855 3.5456-2.129.6244-4.166 1.8428-5.855 3.5456-.965.9723-1.774 2.0574-2.405 3.2087l-3.036-4.6443-3.911-3.763Z" fill="#3A032D"/><path d="M146.138 54.8334c-.44-1.0266-.667-2.1329-.667-3.251 0-1.118.227-2.2243.667-3.2509-1.02.4427-2.118.6711-3.228.6711-1.11 0-2.209-.2284-3.228-.6711.44 1.0265.667 2.1328.667 3.2509 0 1.1182-.227 2.2245-.667 3.251 1.019-.4433 2.118-.672 3.228-.672 1.11 0 2.208.2287 3.228.672Z" fill="#D3C7D0"/><path d="m147.541 56.9203.67-.6749c-2.38-2.3968-2.38-6.9301 0-9.3268l-.669-.6741c-2.38 2.3968-6.881 2.3968-9.261 0l-.335.3366-.334.3375c2.38 2.3967 2.38 6.93 0 9.3268l.669.6749c2.379-2.3977 6.88-2.3977 9.26 0Zm-7.194-5.3388c.003-1.1186-.224-2.2257-.668-3.251 1.02.4428 2.118.6711 3.228.6711 1.11 0 2.209-.2283 3.228-.6711-.44 1.0267-.666 2.1329-.666 3.251 0 1.118.226 2.2243.666 3.251-1.019-.4434-2.118-.6721-3.228-.6721-1.11 0-2.209.2287-3.228.6721.445-1.0249.673-2.1317.67-3.2501l-.002-.0009Z" fill="#3A032D"/><g clip-path="url(#a)"><path d="M33.5752 118.512c.7723 5.873 1.6984 10.908 2.6856 14.589 1.4771 5.5 2.5119 5.746 2.523 5.748.011.001.9371-.262 1.8554-5.673.7051-4.165 1.2372-10.355 1.5801-18.411l-8.6441 3.747Z" fill="#D3C7D0"/><path d="M163.82 60.0907c.901-3.6598.995-7.4721.275-11.1673-.72-3.6952-2.236-7.1832-4.441-10.2174-2.206-3.0342-5.046-5.5406-8.321-7.3419-9.568-4.8721-18.069-3.4477-25.427.5852-10.28 6.2776-14.846 18.9452-11.018 30.3278l-10.309 6.2942c.201-.537.294-1.1087.273-1.6816-.023-.4176-.131-.8257-.318-1.1982-.188-.3725-.45-.7012-.771-.9652-1.721-1.4874-3.999-.795-6.1983-.1282-1.298.3948-2.6457.8-3.9269.822-9.8115.14-16.218.8382-19.0415 2.0773-1.1936.5236-3.6625 1.0914-6.523 1.7495-6.6711 1.5324-15.8071 3.6315-20.9136 7.6706-3.2882 2.6015-16.2297 6.6255-16.3602 6.6653l-.4994.1551-.0171.5258c-.3417 10.1549.3029 22.5073 1.7697 33.8923.81 6.282 1.7949 11.649 2.85 15.523 1.0143 3.727 1.9955 5.784 3.0933 6.423.2556.154.5505.229.8485.216 1.431-.069 2.3831-2.053 3.1842-6.635.7599-4.345 1.3236-10.926 1.6745-19.562l8.1102-3.52c17.4557 1.66 29.6755-2.508 31.0148-2.989 2.493-.898 3.7761-2.396 5.1354-3.987.8232-.963 1.6744-1.958 2.8654-2.9 1.7539-1.3865 2.5376-2.9767 3.2946-4.5144.6706-1.3635 1.3689-2.7754 2.7891-4.1111 6.8933.216 10.9413-1.3571 11.7023-4.5659.761-3.2088-1.324-5.0677-3.676-6.3008l15.59-9.5181c3.147 3.3422 7.13 5.766 11.532 7.0176 4.401 1.2516 9.059 1.285 13.485.0965 4.426-1.1884 8.458-3.5549 11.673-6.8516 3.215-3.2966 5.495-7.4022 6.601-11.8865Zm-42.638 10.1672c-2.05-2.3026-3.648-4.9773-4.709-7.8828-3.961-10.8761.325-23.1422 10.189-29.1648 11.363-6.9369 26.171-3.2715 33.012 8.172 3.287 5.5048 4.269 12.1086 2.729 18.3589-1.54 6.2503-5.476 11.6354-10.942 14.9706-9.86 6.0247-22.593 4.1444-30.279-4.4539Zm-17.837 10.2314c-1.147-.4862-2.376-.924-3.6713-1.3828-1.9566-.6956-3.9812-1.4136-5.6637-2.3086l-.0492-.0286L115.407 63.679c.504 1.2525 1.104 2.4632 1.794 3.6212.692 1.1587 1.474 2.2603 2.338 3.2946l-16.194 9.8945ZM38.7854 138.845c-.0088-.005-1.0458-.248-2.523-5.748-.9871-3.681-1.9132-8.716-2.6855-14.589l8.6441-3.747c-.3429 8.056-.8738 14.247-1.5801 18.411-.9183 5.411-1.8507 5.67-1.8555 5.673Zm68.4236-51.6527c-.79 3.3007-6.938 3.5605-10.5323 3.423-1.5279-.0586-3.0513-.1991-4.5639-.4208l-.2344 1.4538c.0667.0099 1.3212.2105 3.1291.3467-1.0255 1.2166-1.634 2.4512-2.18 3.5623-.716 1.4544-1.3924 2.828-2.8867 4.0084-1.3023 1.0303-2.2415 2.1283-3.0696 3.0973-1.2854 1.503-2.3942 2.8-4.5224 3.566-4.7654 1.716-16.5709 4.254-30.5725 2.893l-.1851-.018-18.2055 7.892c-1.347-10.843-1.9479-22.4759-1.6555-32.1663 2.4836-.7871 13.1795-4.2632 16.3344-6.7585 4.8465-3.8348 13.7983-5.8914 20.3343-7.3935 3.0532-.7008 5.4638-1.2549 6.785-1.8369 1.8166-.7975 6.499-1.7839 18.4775-1.9563 1.4921-.0202 2.9333-.4593 4.328-.8847 1.9923-.6051 3.7126-1.1267 4.8316-.1614.171.1377.311.3104.411.5069.1.1965.158.4122.169.6329.068 1.1855-.98 2.6513-1.464 3.2082l-9.5612 5.8347c-2.6137-1.1048-6.157-2.0938-10.5441-2.9373-3.4084-.6519-6.0835-.966-6.1011-.9762l-.1748 1.4612c.1037.0127 10.4958 1.2664 16.579 3.9499.4351.1918.8368.3862 1.1936.5767 1.7761.9461 3.8525 1.6823 5.8646 2.3897 1.399.4952 2.726.9678 3.921 1.4925 3.434 1.5258 4.616 3.0295 4.095 5.2147Z" fill="#3A032D"/><path fill-rule="evenodd" clip-rule="evenodd" d="M148.467 37.6659c-8.986-5.2255-20.473-2.1313-25.657 6.911-5.183 9.0423-2.1 20.6086 6.886 25.8341 8.987 5.2254 20.474 2.1313 25.657-6.911 5.184-9.0423 2.101-20.6086-6.886-25.8341Zm-27.013 6.1225c5.616-9.7958 18.06-13.1478 27.796-7.4869 9.735 5.6609 13.075 18.1911 7.459 27.9869-5.615 9.7959-18.06 13.1479-27.795 7.487-9.735-5.661-13.075-18.1911-7.46-27.987Z" fill="#3A032D"/></g><defs><clipPath id="a"><path fill="#fff" d="M30.1934 28.2755h134.38v112.044h-134.38z"/></clipPath></defs></svg>