<svg width="352" height="156" viewBox="0 0 352 156" fill="none" xmlns="http://www.w3.org/2000/svg"><g clip-path="url(#a)"><path fill="#fff" d="M0 0h352v156H0z"/><path transform="matrix(0 1 1 0 -1.5 -126)" fill="url(#b)" d="M0 0h351.5v37.2176H0z"/><path transform="rotate(90 352.218 -126)" fill="url(#c)" d="M352.218-126h351.5v37.2176h-351.5z"/><path transform="matrix(-1 0 0 1 352 0)" fill="url(#d)" d="M0 0h351.5v37.2176H0z"/><path fill="url(#e)" d="M.5 119H352v37.2176H.5z"/><rect x="15.475" y="14.475" width="352.05" height="37.05" rx="7.125" fill="#F7F7F7"/><rect x="15.475" y="14.475" width="352.05" height="37.05" rx="7.125" stroke="#EAEAEA" stroke-width=".95"/><rect x="26.4004" y="21.6001" width="22.8" height="22.8" rx="3.8" fill="#E9E3E7"/><g clip-path="url(#f)"><path fill="#E9E3E7" d="M32.8115 28.9995h4.72604v8.32078H32.8115zM37.8008 28.9995h4.72604v2.40073H37.8008z"/><path fill-rule="evenodd" clip-rule="evenodd" d="M32.1914 37.3152v-8.5554l.3565-.3565h9.9813l.3565.3565v3.1683h-4.9985v5.7436h-5.3393l-.3565-.3565Zm.713-8.1989h4.2777v2.1388h-4.2777v-2.1388Zm0 2.8518h4.2777v2.1388h-4.2777v-2.1388Zm0 2.8518h4.2777v2.1388h-4.2777v-2.1388Zm4.9906-5.7036v2.1388h4.2777v-2.1388H37.895Z" fill="#3A032D"/><path d="M40.4779 35.7771v1.8715h.5348v-1.8715h1.8715v-.5348h-1.8715v-1.8715h-.5348v1.8715h-1.8715v.5348h1.8715Z" fill="#3A032D"/><path d="M38.6064 35.8127h1.8359V37.6842h.606V35.8127H42.9198v-.606H41.0483V33.3352h-.606V35.2067H38.5708v.606h.0356Z" stroke="#3A032D" stroke-width=".071295"/></g><path d="M59.9263 37.5v-8.379h-2.6999v-.8778h6.4239v.8778h-2.7132V37.5h-1.0108Zm5.8966 0h-1.0108v-6.9426h1.0108v1.1438c.4522-.7315 1.0507-1.2635 1.9684-1.2635.2926 0 .6118.0532.8246.1596l-.2261.8911c-.1862-.0665-.4522-.133-.7315-.133-.7049 0-1.3832.399-1.8354 1.1837V37.5Zm6.6405-6.2111c-1.0773 0-1.6891.6384-1.8088 2.1147h3.4447c-.0133-1.5428-.7182-2.1147-1.6359-2.1147Zm2.5403 5.2402c-.4921.7448-1.4497 1.0906-2.3674 1.0906-1.862 0-3.0191-1.2768-3.0191-3.6176 0-2.4073 1.1172-3.5777 2.8595-3.5777 1.4763 0 2.6467 1.0906 2.6467 3.1255v.6916h-4.4821c.0532 1.6625.7315 2.4871 1.995 2.4871.7049 0 1.2768-.2394 1.7157-.8379l.6517.6384Zm3.3692.9709h-1.0108v-6.9426h1.0108v1.2103c.5719-.8911 1.2369-1.3433 2.1945-1.3433 1.2502 0 2.0615.9177 2.0615 2.3009V37.5h-1.0108v-4.5353c0-1.064-.532-1.5827-1.3566-1.5827-.7847 0-1.4497.4921-1.8886 1.2768V37.5Zm9.2506-6.1712c-1.0108.0133-1.8088.7315-1.8088 2.7797 0 2.0083.7182 2.5669 1.6492 2.5669.6517 0 1.3034-.399 1.7423-1.1305v-3.7373c-.4522-.3192-.9709-.4655-1.5827-.4788Zm-.1463-.9044c.7049 0 1.2635.1862 1.729.4655v-2.9127h1.0108V37.5h-.9842v-1.0773c-.4256.6251-1.1172 1.197-2.0615 1.197-1.3433 0-2.3674-1.0773-2.3674-3.5112 0-2.6068 1.2635-3.6841 2.6733-3.6841Zm7.5122 7.1953c-.9709 0-1.8886-.2793-2.6201-.8512l.4788-.7714c.5985.4788 1.3699.7315 2.1413.7315.798 0 1.5694-.2527 1.5694-1.0374 0-.7315-.4123-.9177-1.6359-1.1837-1.5561-.3325-2.3408-.8379-2.3408-2.1014 0-1.2768 1.0374-1.9817 2.3142-1.9817.8778 0 1.7423.3192 2.4339.8645l-.4788.7714c-.5586-.4389-1.2369-.7315-1.9551-.7315-.7049 0-1.3433.2793-1.3433 1.0241 0 .6783.399.9177 1.6625 1.197 1.5162.3325 2.3275.7714 2.3275 2.0615 0 1.3167-1.1704 2.0083-2.5536 2.0083Zm9.0566-8.3657c-.439 0-.719-.2128-.719-.6783s.28-.6916.719-.6916c.425 0 .705.2261.705.7049 0 .4522-.293.665-.705.665Zm-.506 8.246v-6.9426h1.011V37.5h-1.011Zm4.63 0h-1.011v-6.9426h1.011v1.2103c.572-.8911 1.237-1.3433 2.194-1.3433 1.251 0 2.062.9177 2.062 2.3009V37.5h-1.011v-4.5353c0-1.064-.532-1.5827-1.356-1.5827-.785 0-1.45.4921-1.889 1.2768V37.5Zm11.667-4.4555h2.381c1.17 0 1.822-.7315 1.822-1.9551 0-1.2103-.652-1.9684-1.822-1.9684h-2.381v3.9235Zm0 4.4555h-1.024v-9.2568h3.445c1.755 0 2.793 1.1039 2.793 2.8595 0 1.33-.798 2.4871-2.182 2.7398l2.288 3.6575H124l-2.248-3.591h-1.915V37.5Zm9.783-6.2111c-1.077 0-1.689.6384-1.808 2.1147h3.444c-.013-1.5428-.718-2.1147-1.636-2.1147Zm2.541 5.2402c-.492.7448-1.45 1.0906-2.368 1.0906-1.862 0-3.019-1.2768-3.019-3.6176 0-2.4073 1.117-3.5777 2.86-3.5777 1.476 0 2.646 1.0906 2.646 3.1255v.6916h-4.482c.053 1.6625.732 2.4871 1.995 2.4871.705 0 1.277-.2394 1.716-.8379l.652.6384Zm4.154.2394c.678 0 1.276-.3458 1.689-.8113v-1.5295h-1.769c-.718 0-1.237.3325-1.237 1.1172 0 .7714.479 1.2236 1.317 1.2236Zm3.67.7315c-.824.1729-1.569-.1995-1.675-.9443-.546.6251-1.357 1.064-2.221 1.064-1.144 0-2.075-.7049-2.075-1.9817 0-1.2502.851-2.0349 2.194-2.0349h1.796v-.8246c0-.9443-.452-1.4896-1.41-1.4896-.771 0-1.21.2793-1.556 1.1305l-.825-.4389c.439-1.0374 1.264-1.5561 2.474-1.5561 1.357 0 2.301.8379 2.301 2.1945v3.2851c0 .6783.399.9044.997.7182V37.5Zm4.132.1197c-1.689 0-2.793-1.1305-2.793-3.591 0-2.4206 1.104-3.6043 2.807-3.6043 1.223 0 2.114.6118 2.513 1.9285l-.944.3059c-.279-1.0241-.811-1.33-1.596-1.33-1.13 0-1.755.7581-1.755 2.6999 0 1.9285.611 2.6999 1.755 2.6999.785 0 1.317-.3059 1.596-1.3433l.944.3192c-.399 1.3034-1.303 1.9152-2.527 1.9152Zm5.638-.1197h-1.024v-9.5228h1.024v3.7905c.572-.8911 1.224-1.3433 2.182-1.3433 1.263 0 2.074.9177 2.074 2.3009V37.5h-1.01v-4.5353c0-1.064-.532-1.5827-1.357-1.5827-.785 0-1.463.4921-1.889 1.2768V37.5Zm13.769.1197c-2.062 0-3.498-1.3832-3.498-4.8545 0-3.2718 1.45-4.6417 3.511-4.6417 2.062 0 3.485 1.3699 3.485 4.6417 0 3.4713-1.437 4.8545-3.498 4.8545Zm0-.8911c1.516 0 2.474-.931 2.474-3.9634 0-2.793-.958-3.7506-2.474-3.7506-1.516 0-2.487.9576-2.487 3.7506 0 3.0324.971 3.9634 2.487 3.9634Zm8.334.7714h-1.037l-2.354-6.9426h1.051l1.835 5.7589 1.849-5.7589h1.037L171.858 37.5Zm6.539-6.2111c-1.078 0-1.69.6384-1.809 2.1147h3.444c-.013-1.5428-.718-2.1147-1.635-2.1147Zm2.54 5.2402c-.492.7448-1.45 1.0906-2.368 1.0906-1.862 0-3.019-1.2768-3.019-3.6176 0-2.4073 1.118-3.5777 2.86-3.5777 1.476 0 2.647 1.0906 2.647 3.1255v.6916h-4.483c.054 1.6625.732 2.4871 1.995 2.4871.705 0 1.277-.2394 1.716-.8379l.652.6384Zm3.369.9709h-1.011v-6.9426h1.011v1.1438c.452-.7315 1.051-1.2635 1.968-1.2635.293 0 .612.0532.825.1596l-.226.8911c-.186-.0665-.452-.133-.732-.133-.704 0-1.383.399-1.835 1.1837V37.5Zm9.662 0v-8.379h-2.7v-.8778h6.424v.8778h-2.713V37.5h-1.011Zm5.794-8.246c-.439 0-.718-.2128-.718-.6783s.279-.6916.718-.6916c.425 0 .705.2261.705.7049 0 .4522-.293.665-.705.665Zm-.506 8.246v-6.9426h1.011V37.5h-1.011Zm4.63-5.1072V37.5h-1.024v-6.9426h1.024v.9443c.612-.7714 1.33-1.0773 2.141-1.0773.812 0 1.41.4655 1.65 1.2236.731-.9177 1.463-1.2236 2.274-1.2236 1.064 0 1.756.798 1.756 2.0482V37.5h-1.011v-4.8013c0-.8911-.413-1.3167-1.038-1.3167-.771 0-1.383.3724-1.862 1.0108V37.5h-1.01v-4.8013c0-.8911-.413-1.3167-1.051-1.3167-.772 0-1.37.3591-1.849 1.0108Zm12.823-1.1039c-1.077 0-1.689.6384-1.809 2.1147h3.445c-.013-1.5428-.718-2.1147-1.636-2.1147Zm2.54 5.2402c-.492.7448-1.449 1.0906-2.367 1.0906-1.862 0-3.019-1.2768-3.019-3.6176 0-2.4073 1.117-3.5777 2.859-3.5777 1.477 0 2.647 1.0906 2.647 3.1255v.6916h-4.482c.053 1.6625.731 2.4871 1.995 2.4871.705 0 1.277-.2394 1.716-.8379l.651.6384Z" fill="#1A1A1A"/><g opacity=".8"><rect x="51.475" y="58.475" width="352.05" height="37.05" rx="7.125" fill="#fff"/><rect x="51.475" y="58.475" width="352.05" height="37.05" rx="7.125" stroke="#EAEAEA" stroke-width=".95"/><rect x="62.4004" y="65.6001" width="22.8" height="22.8" rx="3.8" fill="#E9E3E7"/><g clip-path="url(#g)"><path fill="#E9E3E7" d="M68.8115 72.9995h4.72604v8.32078H68.8115zM73.8008 72.9995h4.72604v2.40073H73.8008z"/><path fill-rule="evenodd" clip-rule="evenodd" d="M68.1914 81.3152v-8.5554l.3565-.3565h9.9813l.3565.3565v3.1683h-4.9985v5.7436h-5.3393l-.3565-.3565Zm.713-8.1989h4.2777v2.1388h-4.2777v-2.1388Zm0 2.8518h4.2777v2.1388h-4.2777v-2.1388Zm0 2.8518h4.2777v2.1388h-4.2777v-2.1388Zm4.9906-5.7036v2.1388h4.2777v-2.1388H73.895Z" fill="#3A032D"/><path d="M76.4779 79.7771v1.8715h.5348v-1.8715h1.8715v-.5348h-1.8715v-1.8715h-.5348v1.8715h-1.8715v.5348h1.8715Z" fill="#3A032D"/><path d="M74.6064 79.8127h1.8359V81.6842h.606V79.8127H78.9198v-.606H77.0483V77.3352h-.606V79.2067H74.5708v.606h.0356Z" stroke="#3A032D" stroke-width=".071295"/></g><path d="M94.0111 81.5v-9.2568h5.6392v.8778h-4.6151v2.9526h4.0964v.9044h-4.0964v3.6442h4.6151V81.5h-5.6392Zm10.4209 0h-1.037l-2.354-6.9426h1.05l1.836 5.7589 1.848-5.7589h1.038L104.432 81.5Zm6.458.1197c-1.662 0-2.766-1.1305-2.766-3.5777 0-2.4339 1.104-3.6176 2.78-3.6176 1.622 0 2.766 1.1837 2.766 3.6309 0 2.4339-1.13 3.5644-2.78 3.5644Zm0-.8911c1.131 0 1.743-.7714 1.743-2.6733 0-1.8886-.612-2.7265-1.743-2.7265-1.13 0-1.742.8379-1.742 2.7132 0 1.9152.612 2.6866 1.742 2.6866Zm4.992.7714v-9.5228h1.024V81.5h-1.024Zm7.821-6.9426h1.011V81.5h-1.011v-1.2103c-.572.8911-1.223 1.33-2.194 1.33-1.25 0-2.062-.9044-2.062-2.3009v-4.7614h1.011v4.5353c0 1.064.532 1.5827 1.343 1.5827.798 0 1.463-.5054 1.902-1.2768v-4.8412Zm6.218 7.049c-1.29 0-2.008-.7847-2.008-2.3142v-3.8437h-1.396v-.8911h1.396v-1.9152h1.011v1.9152h2.274v.8911h-2.274v3.8703c0 .9576.439 1.3832 1.09 1.3832.293 0 .692-.0665 1.064-.2261l.213.8645c-.439.1862-.917.266-1.37.266Zm3.778-8.3524c-.439 0-.718-.2128-.718-.6783s.279-.6916.718-.6916c.426 0 .705.2261.705.7049 0 .4522-.293.665-.705.665Zm-.505 8.246v-6.9426h1.011V81.5h-1.011Zm6.013.1197c-1.663 0-2.767-1.1305-2.767-3.5777 0-2.4339 1.104-3.6176 2.78-3.6176 1.623 0 2.766 1.1837 2.766 3.6309 0 2.4339-1.13 3.5644-2.779 3.5644Zm0-.8911c1.13 0 1.742-.7714 1.742-2.6733 0-1.8886-.612-2.7265-1.742-2.7265-1.131 0-1.743.8379-1.743 2.7132 0 1.9152.612 2.6866 1.743 2.6866Zm6.015.7714h-1.011v-6.9426h1.011v1.2103c.572-.8911 1.237-1.3433 2.194-1.3433 1.251 0 2.062.9177 2.062 2.3009V81.5h-1.011v-4.5353c0-1.064-.532-1.5827-1.356-1.5827-.785 0-1.45.4921-1.889 1.2768V81.5Zm13.037.1197c-1.663 0-2.766-1.1305-2.766-3.5777 0-2.4339 1.103-3.6176 2.779-3.6176 1.623 0 2.767 1.1837 2.767 3.6309 0 2.4339-1.131 3.5644-2.78 3.5644Zm0-.8911c1.13 0 1.742-.7714 1.742-2.6733 0-1.8886-.612-2.7265-1.742-2.7265-1.131 0-1.742.8379-1.742 2.7132 0 1.9152.611 2.6866 1.742 2.6866Zm5.723.7714v-6.0515h-1.384v-.8911h1.384v-.6517c0-1.6625 1.649-2.1945 3.112-1.6758l-.213.8113c-.771-.2793-1.875-.3458-1.875.8645v.6517h1.995v.8911h-1.995V81.5h-1.024Zm11.943.1197c-2.048 0-3.471-1.4098-3.471-4.8545 0-3.2585 1.436-4.6417 3.484-4.6417 1.849 0 2.966 1.1172 3.179 2.8462l-.971.2261c-.173-1.4231-.864-2.1812-2.221-2.1812-1.49 0-2.46.9576-2.46 3.7506 0 3.0191.97 3.9634 2.46 3.9634 1.45 0 2.088-.8113 2.221-2.128l.971.2128c-.173 1.6226-1.25 2.8063-3.192 2.8063Zm5.365-.1197v-9.2568h2.593c1.836 0 3.272.8778 3.272 3.1122 0 2.2743-1.436 3.1521-3.272 3.1521h-1.569V81.5h-1.024Zm1.024-3.857h1.556c1.25 0 2.261-.4921 2.261-2.2876 0-1.7423-1.011-2.2344-2.261-2.2344h-1.556v4.522Zm6.894 3.857v-9.2568h2.593c1.836 0 3.272.8778 3.272 3.1122 0 2.2743-1.436 3.1521-3.272 3.1521h-1.569V81.5h-1.024Zm1.024-3.857h1.556c1.25 0 2.261-.4921 2.261-2.2876 0-1.7423-1.011-2.2344-2.261-2.2344h-1.556v4.522Zm13.729 3.9767c-2.061 0-3.498-1.3832-3.498-4.8545 0-3.2718 1.45-4.6417 3.511-4.6417 2.062 0 3.485 1.3699 3.485 4.6417 0 3.4713-1.436 4.8545-3.498 4.8545Zm0-.8911c1.516 0 2.474-.931 2.474-3.9634 0-2.793-.958-3.7506-2.474-3.7506-1.516 0-2.487.9576-2.487 3.7506 0 3.0324.971 3.9634 2.487 3.9634Zm8.335.7714h-1.038l-2.354-6.9426h1.051l1.835 5.7589 1.849-5.7589h1.037l-2.38 6.9426Zm6.538-6.2111c-1.078 0-1.689.6384-1.809 2.1147h3.445c-.014-1.5428-.719-2.1147-1.636-2.1147Zm2.54 5.2402c-.492.7448-1.45 1.0906-2.367 1.0906-1.862 0-3.019-1.2768-3.019-3.6176 0-2.4073 1.117-3.5777 2.859-3.5777 1.476 0 2.647 1.0906 2.647 3.1255v.6916h-4.482c.053 1.6625.731 2.4871 1.995 2.4871.705 0 1.276-.2394 1.715-.8379l.652.6384Zm3.369.9709h-1.011v-6.9426h1.011v1.1438c.452-.7315 1.051-1.2635 1.969-1.2635.292 0 .611.0532.824.1596l-.226.8911c-.186-.0665-.452-.133-.731-.133-.705 0-1.384.399-1.836 1.1837V81.5Zm9.662 0v-8.379h-2.7v-.8778h6.424v.8778h-2.713V81.5h-1.011Zm5.794-8.246c-.439 0-.718-.2128-.718-.6783s.279-.6916.718-.6916c.426 0 .705.2261.705.7049 0 .4522-.293.665-.705.665Zm-.505 8.246v-6.9426h1.01V81.5h-1.01Zm4.629-5.1072V81.5h-1.024v-6.9426h1.024v.9443c.612-.7714 1.33-1.0773 2.142-1.0773.811 0 1.409.4655 1.649 1.2236.731-.9177 1.463-1.2236 2.274-1.2236 1.064 0 1.756.798 1.756 2.0482V81.5h-1.011v-4.8013c0-.8911-.412-1.3167-1.038-1.3167-.771 0-1.383.3724-1.862 1.0108V81.5h-1.01v-4.8013c0-.8911-.413-1.3167-1.051-1.3167-.771 0-1.37.3591-1.849 1.0108Zm12.823-1.1039c-1.077 0-1.689.6384-1.809 2.1147h3.445c-.013-1.5428-.718-2.1147-1.636-2.1147Zm2.541 5.2402c-.493.7448-1.45 1.0906-2.368 1.0906-1.862 0-3.019-1.2768-3.019-3.6176 0-2.4073 1.117-3.5777 2.86-3.5777 1.476 0 2.646 1.0906 2.646 3.1255v.6916h-4.482c.053 1.6625.732 2.4871 1.995 2.4871.705 0 1.277-.2394 1.716-.8379l.652.6384Z" fill="#1A1A1A"/></g><g opacity=".4"><rect x="94.475" y="102.475" width="352.05" height="37.05" rx="7.125" fill="#fff"/><rect x="94.475" y="102.475" width="352.05" height="37.05" rx="7.125" stroke="#EAEAEA" stroke-width=".95"/><rect x="105.4" y="109.6" width="22.8" height="22.8" rx="3.8" fill="#E9E3E7"/><g clip-path="url(#h)"><path fill="#E9E3E7" d="M111.812 117h4.72604v8.32078H111.812zM116.801 117h4.72604v2.40073H116.801z"/><path fill-rule="evenodd" clip-rule="evenodd" d="M111.191 125.315v-8.555l.357-.357h9.981l.357.357v3.168h-4.999v5.744h-5.339l-.357-.357Zm.713-8.199h4.278v2.139h-4.278v-2.139Zm0 2.852h4.278v2.139h-4.278v-2.139Zm0 2.852h4.278v2.139h-4.278v-2.139Zm4.991-5.704v2.139h4.278v-2.139h-4.278Z" fill="#3A032D"/><path d="M119.478 123.777v1.872h.535v-1.872h1.871v-.535h-1.871v-1.871h-.535v1.871h-1.872v.535h1.872Z" fill="#3A032D"/><path d="M117.606 123.813h1.836v1.871H120.048v-1.871h1.872V123.207h-1.872v-1.872H119.442v1.872h-1.871V123.813h.035Z" stroke="#3A032D" stroke-width=".071295"/></g><path d="M139.91 125.567c-1.582 0-2.739-.626-3.404-1.809l.744-.572c.479.917 1.264 1.503 2.66 1.503 1.277 0 2.142-.519 2.142-1.57 0-.997-.519-1.449-2.434-1.875-1.929-.439-2.767-1.131-2.767-2.58 0-1.49 1.158-2.474 2.873-2.474 1.503 0 2.514.652 3.086 1.662l-.732.559c-.492-.731-1.183-1.33-2.367-1.33-1.091 0-1.862.452-1.862 1.503 0 .904.359 1.343 2.194 1.742 2.155.439 2.993 1.277 2.993 2.713 0 1.53-1.277 2.528-3.126 2.528Zm9.585-7.01h1.011v6.943h-1.011v-1.21c-.572.891-1.223 1.33-2.194 1.33-1.25 0-2.062-.905-2.062-2.301v-4.762h1.011v4.536c0 1.064.532 1.582 1.343 1.582.798 0 1.463-.505 1.902-1.276v-4.842Zm4.636 1.836v5.107h-1.024v-6.943h1.024v.945c.611-.772 1.33-1.078 2.141-1.078.811 0 1.41.466 1.649 1.224.732-.918 1.463-1.224 2.274-1.224 1.064 0 1.756.798 1.756 2.049v5.027h-1.011v-4.801c0-.891-.412-1.317-1.037-1.317-.772 0-1.383.372-1.862 1.011v5.107h-1.011v-4.801c0-.891-.412-1.317-1.051-1.317-.771 0-1.37.359-1.848 1.011Zm11.36 0v5.107h-1.024v-6.943h1.024v.945c.611-.772 1.33-1.078 2.141-1.078.811 0 1.41.466 1.649 1.224.732-.918 1.463-1.224 2.274-1.224 1.064 0 1.756.798 1.756 2.049v5.027H172.3v-4.801c0-.891-.412-1.317-1.037-1.317-.772 0-1.383.372-1.862 1.011v5.107h-1.011v-4.801c0-.891-.412-1.317-1.051-1.317-.771 0-1.37.359-1.848 1.011Zm12.144 4.375c.679 0 1.277-.345 1.689-.811v-1.529h-1.769c-.718 0-1.236.332-1.236 1.117 0 .771.478 1.223 1.316 1.223Zm3.671.732c-.825.173-1.569-.2-1.676-.944-.545.625-1.356 1.064-2.221 1.064-1.144 0-2.075-.705-2.075-1.982 0-1.25.852-2.035 2.195-2.035h1.795v-.825c0-.944-.452-1.489-1.409-1.489-.772 0-1.211.279-1.557 1.13l-.824-.439c.439-1.037 1.263-1.556 2.474-1.556 1.356 0 2.301.838 2.301 2.195v3.285c0 .678.399.904.997.718v.878Zm2.787 0h-1.011v-6.943h1.011v1.144c.452-.731 1.051-1.263 1.969-1.263.292 0 .611.053.824.159l-.226.891c-.186-.066-.452-.133-.731-.133-.705 0-1.384.399-1.836 1.184v4.961Zm4.694 2.381c-.306 0-.638-.027-.957-.107l.159-.891c.279.08.625.12.851.12.772 0 1.078-.572 1.304-1.383l-2.368-7.063h1.064l1.809 5.746 1.769-5.746h1.037l-2.54 7.462c-.452 1.356-1.184 1.862-2.128 1.862Zm12.637-2.261c-1.662 0-2.766-1.131-2.766-3.578 0-2.434 1.104-3.618 2.78-3.618 1.622 0 2.766 1.184 2.766 3.631 0 2.434-1.13 3.565-2.78 3.565Zm0-.891c1.131 0 1.743-.772 1.743-2.674 0-1.888-.612-2.726-1.743-2.726-1.13 0-1.742.838-1.742 2.713 0 1.915.612 2.687 1.742 2.687Zm5.723.771v-6.052h-1.383v-.891h1.383v-.651c0-1.663 1.649-2.195 3.112-1.676l-.212.811c-.772-.279-1.876-.346-1.876.865v.651h1.995v.891h-1.995v6.052h-1.024Zm8.845 0v-9.257h2.593c1.836 0 3.272.878 3.272 3.112 0 2.275-1.436 3.152-3.272 3.152h-1.569v2.993h-1.024Zm1.024-3.857h1.556c1.25 0 2.261-.492 2.261-2.288 0-1.742-1.011-2.234-2.261-2.234h-1.556v4.522Zm10.953-3.086h1.011v6.943h-1.011v-1.21c-.572.891-1.223 1.33-2.194 1.33-1.25 0-2.062-.905-2.062-2.301v-4.762h1.011v4.536c0 1.064.532 1.582 1.343 1.582.798 0 1.463-.505 1.902-1.276v-4.842Zm4.636 6.943h-1.011v-6.943h1.011v1.144c.452-.731 1.05-1.263 1.968-1.263.293 0 .612.053.825.159l-.226.891c-.187-.066-.453-.133-.732-.133-.705 0-1.383.399-1.835 1.184v4.961Zm6.587.12c-1.689 0-2.793-1.131-2.793-3.591 0-2.421 1.104-3.605 2.806-3.605 1.224 0 2.115.612 2.514 1.929l-.944.306c-.28-1.024-.812-1.33-1.596-1.33-1.131 0-1.756.758-1.756 2.7 0 1.928.612 2.7 1.756 2.7.784 0 1.316-.306 1.596-1.344l.944.319c-.399 1.304-1.303 1.916-2.527 1.916Zm5.638-.12h-1.024v-9.523h1.024v3.791c.572-.891 1.224-1.344 2.181-1.344 1.264 0 2.075.918 2.075 2.301v4.775h-1.011v-4.535c0-1.064-.532-1.583-1.356-1.583-.785 0-1.463.492-1.889 1.277v4.841Zm8.599-.732c.678 0 1.277-.345 1.689-.811v-1.529h-1.769c-.718 0-1.237.332-1.237 1.117 0 .771.479 1.223 1.317 1.223Zm3.671.732c-.825.173-1.57-.2-1.676-.944-.545.625-1.357 1.064-2.221 1.064-1.144 0-2.075-.705-2.075-1.982 0-1.25.851-2.035 2.195-2.035h1.795v-.825c0-.944-.452-1.489-1.41-1.489-.771 0-1.21.279-1.556 1.13l-.824-.439c.438-1.037 1.263-1.556 2.473-1.556 1.357 0 2.301.838 2.301 2.195v3.285c0 .678.399.904.998.718v.878Zm3.944.12c-.971 0-1.889-.28-2.62-.852l.479-.771c.598.479 1.37.732 2.141.732.798 0 1.569-.253 1.569-1.038 0-.731-.412-.918-1.636-1.184-1.556-.332-2.34-.837-2.34-2.101 0-1.277 1.037-1.982 2.314-1.982.878 0 1.742.32 2.434.865l-.479.771c-.559-.439-1.237-.731-1.955-.731-.705 0-1.343.279-1.343 1.024 0 .678.399.918 1.662 1.197 1.516.332 2.328.771 2.328 2.061 0 1.317-1.171 2.009-2.554 2.009Zm7.185-6.331c-1.077 0-1.689.638-1.809 2.115h3.445c-.014-1.543-.718-2.115-1.636-2.115Zm2.54 5.24c-.492.745-1.45 1.091-2.367 1.091-1.862 0-3.019-1.277-3.019-3.618 0-2.407 1.117-3.578 2.859-3.578 1.476 0 2.647 1.091 2.647 3.126v.691h-4.482c.053 1.663.731 2.488 1.995 2.488.705 0 1.277-.24 1.715-.838l.652.638Zm7.222-3.485h2.381c1.17 0 1.822-.731 1.822-1.955 0-1.21-.652-1.968-1.822-1.968h-2.381v3.923Zm0 4.456h-1.024v-9.257h3.445c1.756 0 2.793 1.104 2.793 2.86 0 1.33-.798 2.487-2.181 2.739l2.287 3.658h-1.157l-2.247-3.591h-1.916v3.591Zm10.435.12c-2.061 0-3.498-1.384-3.498-4.855 0-3.272 1.45-4.642 3.512-4.642 2.061 0 3.484 1.37 3.484 4.642 0 3.471-1.436 4.855-3.498 4.855Zm0-.891c1.517 0 2.474-.931 2.474-3.964 0-2.793-.957-3.75-2.474-3.75-1.516 0-2.487.957-2.487 3.75 0 3.033.971 3.964 2.487 3.964Zm9.884-2.913-1.45-4.416-1.449 4.416h2.899Zm1.21 3.684-.917-2.793h-3.485l-.918 2.793h-1.024l3.219-9.257h.984l3.232 9.257h-1.091Zm5.867.067c-1.583 0-2.74-.626-3.405-1.809l.745-.572c.479.917 1.264 1.503 2.66 1.503 1.277 0 2.141-.519 2.141-1.57 0-.997-.518-1.449-2.433-1.875-1.929-.439-2.767-1.131-2.767-2.58 0-1.49 1.157-2.474 2.873-2.474 1.503 0 2.514.652 3.086 1.662l-.732.559c-.492-.731-1.184-1.33-2.367-1.33-1.091 0-1.862.452-1.862 1.503 0 .904.359 1.343 2.194 1.742 2.155.439 2.993 1.277 2.993 2.713 0 1.53-1.277 2.528-3.126 2.528Zm11.975.053c-.745 0-1.33-.173-1.756-.453v.333h-.997v-9.523h1.024v3.658c.426-.625 1.091-1.211 2.035-1.211 1.356 0 2.381 1.091 2.381 3.525 0 2.593-1.277 3.671-2.687 3.671Zm-.133-.891c.997-.014 1.809-.745 1.809-2.78 0-2.022-.718-2.567-1.663-2.567-.638 0-1.303.399-1.742 1.117v3.737c.452.333.931.479 1.596.493Zm5.241 3.152c-.306 0-.638-.027-.958-.107l.16-.891c.279.08.625.12.851.12.772 0 1.078-.572 1.304-1.383l-2.368-7.063h1.064l1.809 5.746 1.769-5.746h1.037l-2.54 7.462c-.452 1.356-1.184 1.862-2.128 1.862Zm13.342-2.261c-2.048 0-3.471-1.41-3.471-4.855 0-3.258 1.436-4.642 3.485-4.642 1.848 0 2.965 1.118 3.178 2.847l-.971.226c-.173-1.423-.864-2.181-2.221-2.181-1.489 0-2.46.957-2.46 3.75 0 3.019.971 3.964 2.46 3.964 1.45 0 2.088-.812 2.221-2.128l.971.212c-.173 1.623-1.25 2.807-3.192 2.807Zm7.16-.852c.679 0 1.277-.345 1.689-.811v-1.529h-1.768c-.719 0-1.237.332-1.237 1.117 0 .771.478 1.223 1.316 1.223Zm3.671.732c-.824.173-1.569-.2-1.676-.944-.545.625-1.356 1.064-2.221 1.064-1.144 0-2.075-.705-2.075-1.982 0-1.25.852-2.035 2.195-2.035h1.795v-.825c0-.944-.452-1.489-1.409-1.489-.772 0-1.211.279-1.556 1.13l-.825-.439c.439-1.037 1.263-1.556 2.474-1.556 1.356 0 2.301.838 2.301 2.195v3.285c0 .678.399.904.997.718v.878Zm2.787-5.107v5.107h-1.024v-6.943h1.024v.945c.612-.772 1.33-1.078 2.142-1.078.811 0 1.409.466 1.649 1.224.731-.918 1.463-1.224 2.274-1.224 1.064 0 1.756.798 1.756 2.049v5.027h-1.011v-4.801c0-.891-.412-1.317-1.038-1.317-.771 0-1.383.372-1.862 1.011v5.107h-1.01v-4.801c0-.891-.413-1.317-1.051-1.317-.771 0-1.37.359-1.849 1.011Zm12.956 4.336c1.011-.014 1.809-.745 1.809-2.78 0-2.022-.718-2.567-1.662-2.567-.639 0-1.304.386-1.743 1.117v3.737c.452.333.931.479 1.596.493Zm.133.891c-.745 0-1.303-.173-1.729-.453v2.647h-1.024v-9.257h.998v1.078c.425-.625 1.117-1.211 2.061-1.211 1.343 0 2.381 1.091 2.381 3.525 0 2.593-1.277 3.671-2.687 3.671Zm6.701-.852c.678 0 1.277-.345 1.689-.811v-1.529h-1.769c-.718 0-1.237.332-1.237 1.117 0 .771.479 1.223 1.317 1.223Zm3.671.732c-.825.173-1.569-.2-1.676-.944-.545.625-1.356 1.064-2.221 1.064-1.144 0-2.075-.705-2.075-1.982 0-1.25.851-2.035 2.195-2.035h1.795v-.825c0-.944-.452-1.489-1.41-1.489-.771 0-1.21.279-1.556 1.13l-.824-.439c.439-1.037 1.263-1.556 2.474-1.556 1.356 0 2.3.838 2.3 2.195v3.285c0 .678.399.904.998.718v.878Zm2.282-8.246c-.439 0-.718-.213-.718-.678 0-.466.279-.692.718-.692.425 0 .705.226.705.705 0 .452-.293.665-.705.665Zm-.506 8.246v-6.943h1.011v6.943h-1.011Zm6.053-3.498c.798 0 1.437-.372 1.437-1.343 0-.945-.639-1.317-1.437-1.317-.785 0-1.423.372-1.423 1.317 0 .957.638 1.343 1.423 1.343Zm3.325 3.684c0 1.383-1.356 2.288-3.405 2.288-1.941 0-2.779-.732-2.779-1.623 0-.638.385-1.13 1.117-1.489-.585-.227-.878-.665-.878-1.211 0-.651.372-1.197.971-1.436-.439-.386-.705-.944-.705-1.583 0-1.237.998-2.128 2.341-2.128.199 0 .399.013.585.053h2.554v.812c-.546-.04-.971-.093-1.317-.173.359.372.559.878.559 1.436 0 1.25-.971 2.168-2.394 2.168-.413 0-.798-.093-1.144-.266-.452.253-.599.532-.599.851 0 .466.333.705 1.104.705h2.035c1.197 0 1.955.559 1.955 1.596Zm-3.245 1.45c1.423 0 2.314-.505 2.314-1.33 0-.545-.399-.772-1.024-.772h-2.061c-.133 0-.266 0-.386-.013-.585.359-.838.718-.838 1.131 0 .532.439.984 1.995.984Zm6.272-1.636h-1.011v-6.943h1.011v1.211c.572-.891 1.237-1.344 2.195-1.344 1.25 0 2.061.918 2.061 2.301v4.775h-1.011v-4.535c0-1.064-.532-1.583-1.356-1.583-.785 0-1.45.492-1.889 1.277v4.841Z" fill="#1A1A1A"/></g><g opacity=".2"><rect x="166.475" y="146.475" width="352.05" height="37.05" rx="7.125" fill="#fff"/><rect x="166.475" y="146.475" width="352.05" height="37.05" rx="7.125" stroke="#EAEAEA" stroke-width=".95"/><rect x="177.4" y="153.6" width="22.8" height="22.8" rx="3.8" fill="#E9E3E7"/></g><g filter="url(#i)"><rect x="179" y="42" width="157" height="103.604" rx="2.89401" fill="#fff"/><path fill="#F1F1F1" d="M179 47.7881h157v26.576H179z"/><path d="M196.002 57.5557h.724v2.894h2.894v.7235h-2.894v2.894h-.724v-2.894h-2.894v-.7235h2.894v-2.894Z" fill="#4C4C4C"/><path fill-rule="evenodd" clip-rule="evenodd" d="M196.364 66.5992c3.197 0 5.788-2.5914 5.788-5.788s-2.591-5.788-5.788-5.788c-3.196 0-5.788 2.5914-5.788 5.788s2.592 5.788 5.788 5.788Zm0-.7235c2.797 0 5.065-2.2674 5.065-5.0645 0-2.797-2.268-5.0645-5.065-5.0645-2.797 0-5.064 2.2675-5.064 5.0645 0 2.7971 2.267 5.0645 5.064 5.0645Z" fill="#4C4C4C"/><path d="M211.33 63.5762v-.6685h1.408v-5.7128h-1.408v-.6685h3.586v.6685h-1.408v5.7128h1.408v.6685h-3.586Zm5.92 0h-.77v-5.2874h.77v.9218c.436-.6787.942-1.0231 1.671-1.0231.952 0 1.57.6989 1.57 1.7523v3.6364h-.769v-3.454c0-.8104-.406-1.2054-1.034-1.2054-.597 0-1.104.3748-1.438.9724v3.687Zm6.832.0911c-.739 0-1.438-.2127-1.995-.6482l.365-.5875c.455.3646 1.043.5571 1.63.5571.608 0 1.196-.1925 1.196-.7901 0-.5571-.314-.6989-1.246-.9015-1.185-.2532-1.783-.6381-1.783-1.6003 0-.9724.79-1.5093 1.762-1.5093.669 0 1.327.2431 1.854.6584l-.365.5875c-.425-.3343-.942-.5571-1.489-.5571-.536 0-1.023.2127-1.023.7799 0 .5166.304.6989 1.267.9116 1.154.2533 1.772.5875 1.772 1.57 0 1.0028-.891 1.5295-1.945 1.5295Zm5.472-4.8214c-.82 0-1.286.4862-1.377 1.6105h2.623c-.01-1.1749-.547-1.6105-1.246-1.6105Zm1.935 3.9909c-.375.5672-1.104.8305-1.803.8305-1.418 0-2.299-.9724-2.299-2.7551 0-1.8333.85-2.7247 2.177-2.7247 1.125 0 2.016.8306 2.016 2.3803v.5268h-3.413c.04 1.2661.557 1.8941 1.519 1.8941.537 0 .972-.1823 1.307-.6381l.496.4862Zm2.566.7394h-.77v-5.2874h.77v.8711c.344-.5571.8-.9622 1.499-.9622.223 0 .466.0405.628.1215l-.172.6786c-.142-.0506-.345-.1012-.557-.1012-.537 0-1.054.3038-1.398.9014v3.7782Zm5.247.081c-.982 0-1.529-.5976-1.529-1.7624v-2.9273h-1.064v-.6787h1.064v-1.4586h.769v1.4586h1.733v.6787h-1.733v2.9475c0 .7293.335 1.0534.831 1.0534.223 0 .527-.0506.81-.1722l.162.6584c-.334.1418-.698.2026-1.043.2026Zm7.392 0c-.983 0-1.53-.5976-1.53-1.7624v-2.9273h-1.063v-.6787h1.063v-1.4586h.77v1.4586h1.732v.6787h-1.732v2.9475c0 .7293.334 1.0534.831 1.0534.223 0 .526-.0506.81-.1722l.162.6584c-.334.1418-.699.2026-1.043.2026Zm3.859-.6381c.517 0 .973-.2634 1.287-.6179v-1.1648h-1.347c-.547 0-.942.2532-.942.8508 0 .5875.364.9319 1.002.9319Zm2.796.5571c-.628.1316-1.195-.152-1.276-.7192-.416.4761-1.033.8103-1.692.8103-.871 0-1.58-.5368-1.58-1.5092 0-.9521.648-1.5497 1.671-1.5497h1.368v-.628c0-.7192-.345-1.1345-1.074-1.1345-.587 0-.922.2127-1.185.861l-.628-.3343c.334-.79.962-1.1851 1.884-1.1851 1.033 0 1.752.6382 1.752 1.6713v2.5019c0 .5166.304.6888.76.547v.6685Zm3.439.0911c-.567 0-1.013-.1316-1.337-.3444v.2533h-.759v-7.2524h.78v2.7855c.324-.4761.83-.9218 1.549-.9218 1.034 0 1.813.8306 1.813 2.6842 0 1.9752-.972 2.7956-2.046 2.7956Zm-.101-.6786c.76-.0101 1.378-.5672 1.378-2.117 0-1.5396-.547-1.9549-1.266-1.9549-.487 0-.993.3039-1.327.8509v2.8462c.344.2532.709.3647 1.215.3748Zm3.827.5875v-7.2524h.78v7.2524h-.78Zm4.65-4.7303c-.82 0-1.286.4862-1.377 1.6105h2.623c-.01-1.1749-.547-1.6105-1.246-1.6105Zm1.935 3.9909c-.375.5672-1.104.8305-1.803.8305-1.418 0-2.299-.9724-2.299-2.7551 0-1.8333.851-2.7247 2.178-2.7247 1.124 0 2.015.8306 2.015 2.3803v.5268h-3.413c.04 1.2661.557 1.8941 1.519 1.8941.537 0 .972-.1823 1.307-.6381l.496.4862Z" fill="#1A1A1A"/><path fill="#fff" d="M179 74.364h157v26.576H179z"/><path d="M191.662 82.3228h5.426v.7235h-5.065v5.0645h-.723v-5.4263l.362-.3617Z" fill="#4C4C4C"/><path fill-rule="evenodd" clip-rule="evenodd" d="M201.067 92.4518h-7.235l-.362-.3618v-7.235l.362-.3617h7.235l.362.3617v7.235l-.362.3618Zm-.362-.7235v-6.5115h-6.511v6.5115h6.511Z" fill="#4C4C4C"/><path d="M214.116 90.2433c-1.56 0-2.644-1.0737-2.644-3.6971 0-2.4816 1.094-3.5351 2.654-3.5351 1.408 0 2.259.8509 2.421 2.1676l-.74.1722c-.131-1.0838-.658-1.6611-1.691-1.6611-1.135 0-1.874.7293-1.874 2.8564 0 2.2993.739 3.0184 1.874 3.0184 1.104 0 1.59-.6179 1.691-1.6206l.74.162c-.132 1.2358-.952 2.1373-2.431 2.1373Zm5.909 0c-1.267 0-2.107-.861-2.107-2.7247 0-1.8537.84-2.7551 2.117-2.7551 1.235 0 2.107.9014 2.107 2.7652 0 1.8536-.861 2.7146-2.117 2.7146Zm0-.6787c.861 0 1.327-.5875 1.327-2.0359 0-1.4383-.466-2.0765-1.327-2.0765s-1.327.6382-1.327 2.0664c0 1.4585.466 2.046 1.327 2.046Zm5.796 0c.77-.0101 1.378-.5672 1.378-2.117 0-1.5396-.547-1.9549-1.266-1.9549-.487 0-.993.2938-1.327.8509v2.8462c.344.2533.709.3647 1.215.3748Zm.102.6787c-.568 0-.993-.1317-1.317-.3444v2.0157h-.78v-7.0499h.76v.8205c.324-.4761.85-.9217 1.57-.9217 1.023 0 1.813.8305 1.813 2.6841 0 1.9752-.973 2.7957-2.046 2.7957Zm3.89 1.7219c-.233 0-.486-.0203-.73-.081l.122-.6787c.213.0608.476.0912.648.0912.588 0 .821-.4356.993-1.0534l-1.803-5.3786h.81l1.378 4.3758 1.347-4.3758h.79l-1.935 5.6824c-.344 1.0332-.901 1.4181-1.62 1.4181Zm8.348-1.8131v-4.6087h-1.054v-.6787h1.054v-.4963c0-1.2661 1.256-1.6713 2.37-1.2762l-.162.6178c-.588-.2127-1.428-.2633-1.428.6584v.4963h1.519v.6787h-1.519v4.6087h-.78Zm5.536.0912c-1.266 0-2.107-.861-2.107-2.7247 0-1.8537.841-2.7551 2.117-2.7551 1.236 0 2.107.9014 2.107 2.7652 0 1.8536-.861 2.7146-2.117 2.7146Zm0-.6787c.861 0 1.327-.5875 1.327-2.0359 0-1.4383-.466-2.0765-1.327-2.0765s-1.327.6382-1.327 2.0664c0 1.4585.466 2.046 1.327 2.046Zm4.581.5875h-.77v-5.2874h.77v.8711c.344-.5571.8-.9622 1.499-.9622.223 0 .466.0405.628.1215l-.172.6787c-.142-.0507-.345-.1013-.557-.1013-.537 0-1.054.3039-1.398.9015v3.7781Zm4.042-3.8895v3.8895h-.78v-5.2874h.78v.7192c.466-.5875 1.013-.8204 1.631-.8204.618 0 1.073.3545 1.256.9318.557-.6989 1.114-.9318 1.732-.9318.81 0 1.337.6077 1.337 1.5598v3.8288h-.77v-3.6566c0-.6786-.314-1.0028-.79-1.0028-.588 0-1.054.2837-1.418.7699v3.8895h-.77v-3.6566c0-.6786-.314-1.0028-.8-1.0028-.588 0-1.043.2735-1.408.7699Zm11.072-1.3979h.77v5.2874h-.77v-.9217c-.435.6786-.932 1.0129-1.671 1.0129-.952 0-1.57-.6888-1.57-1.7524v-3.6262h.77v3.454c0 .8104.405 1.2054 1.023 1.2054.607 0 1.114-.3849 1.448-.9724v-3.687Zm2.751 5.2874v-7.2524h.779v7.2524h-.779Zm4.133-.5571c.517 0 .973-.2634 1.287-.6179v-1.1648h-1.348c-.547 0-.942.2532-.942.8508 0 .5875.365.9319 1.003.9319Zm2.796.5571c-.628.1317-1.195-.1519-1.276-.7192-.416.4761-1.034.8104-1.692.8104-.871 0-1.58-.5369-1.58-1.5093 0-.9521.648-1.5497 1.671-1.5497h1.368v-.628c0-.7192-.345-1.1345-1.074-1.1345-.588 0-.922.2128-1.185.861l-.628-.3342c.334-.7901.962-1.1851 1.884-1.1851 1.033 0 1.752.6381 1.752 1.6712v2.5019c0 .5166.304.6888.76.547v.6685Z" fill="#1A1A1A"/><path fill="#fff" d="M179 100.94h157v12.2995H179z"/><path fill="#E1E1E1" d="M190.576 106.728h133.848v.723502H190.576z"/><path fill="#fff" d="M179 113.24h157v26.576H179z"/><path d="M194.917 124.816h.724v4.341h-.724v-4.341ZM197.811 124.816h-.723v4.341h.723v-4.341Z" fill="#E92F3C"/><path fill-rule="evenodd" clip-rule="evenodd" d="M193.47 121.198h5.788v1.447h2.171v.724h-.724v7.959h-8.682v-7.959h-.723v-.724h2.17v-1.447Zm.724 1.447h4.341v-.723h-4.341v.723Zm-1.447.724v7.235h7.235v-7.235h-7.235Z" fill="#E92F3C"/><path d="M211.756 129.028v-7.05h2.248c1.631 0 2.857.983 2.857 3.484 0 2.593-1.236 3.566-2.867 3.566h-2.238Zm.78-.679h1.438c1.246 0 2.107-.668 2.107-2.887 0-2.096-.861-2.815-2.107-2.815h-1.438v5.702Zm7.915-4.051c-.82 0-1.286.486-1.377 1.61h2.623c-.01-1.175-.547-1.61-1.246-1.61Zm1.935 3.99c-.375.568-1.104.831-1.803.831-1.418 0-2.299-.972-2.299-2.755 0-1.833.851-2.725 2.178-2.725 1.124 0 2.015.831 2.015 2.381v.526h-3.413c.04 1.266.557 1.894 1.519 1.894.537 0 .972-.182 1.307-.638l.496.486Zm1.786.74v-7.253h.78v7.253h-.78Zm4.65-4.73c-.82 0-1.286.486-1.377 1.61h2.623c-.01-1.175-.547-1.61-1.246-1.61Zm1.935 3.99c-.375.568-1.104.831-1.803.831-1.418 0-2.299-.972-2.299-2.755 0-1.833.85-2.725 2.177-2.725 1.125 0 2.016.831 2.016 2.381v.526h-3.413c.04 1.266.557 1.894 1.519 1.894.537 0 .972-.182 1.307-.638l.496.486Zm3.771.821c-.982 0-1.529-.598-1.529-1.763v-2.927h-1.064v-.679h1.064v-1.458h.77v1.458h1.732v.679h-1.732v2.948c0 .729.334 1.053.83 1.053.223 0 .527-.051.81-.172l.162.658c-.334.142-.698.203-1.043.203Zm4.327-4.811c-.821 0-1.286.486-1.378 1.61h2.624c-.01-1.175-.547-1.61-1.246-1.61Zm1.935 3.99c-.375.568-1.105.831-1.803.831-1.418 0-2.3-.972-2.3-2.755 0-1.833.851-2.725 2.178-2.725 1.124 0 2.016.831 2.016 2.381v.526h-3.414c.041 1.266.557 1.894 1.52 1.894.536 0 .972-.182 1.306-.638l.497.486Z" fill="#E92F3C"/></g><path transform="matrix(0 1 1 0 4 -126)" fill="url(#j)" d="M0 0h351.5v37.2176H0z"/><path transform="rotate(90 355.218 -105)" fill="url(#k)" d="M355.218-105h351.5v37.2176h-351.5z"/><path fill="url(#l)" d="M0 0h352v42H0z"/><path transform="rotate(-180 352 156)" fill="url(#m)" d="M352 156h352v42H352z"/></g><defs><linearGradient id="b" x1="175.75" y1="1.3292" x2="175.387" y2="28.3587" gradientUnits="userSpaceOnUse"><stop offset=".091576" stop-color="#fff"/><stop offset="1" stop-color="#fff" stop-opacity="0"/></linearGradient><linearGradient id="c" x1="527.968" y1="-124.671" x2="527.605" y2="-97.6413" gradientUnits="userSpaceOnUse"><stop offset=".091576" stop-color="#fff"/><stop offset="1" stop-color="#fff" stop-opacity="0"/></linearGradient><linearGradient id="d" x1="175.75" y1="1.3292" x2="175.387" y2="28.3587" gradientUnits="userSpaceOnUse"><stop offset=".091576" stop-color="#fff"/><stop offset="1" stop-color="#fff" stop-opacity="0"/></linearGradient><linearGradient id="e" x1="193.5" y1="156.5" x2="193.178" y2="107.502" gradientUnits="userSpaceOnUse"><stop offset=".091576" stop-color="#fff"/><stop offset=".829571" stop-color="#fff" stop-opacity="0"/></linearGradient><linearGradient id="j" x1="175.75" y1="1.3292" x2="175.387" y2="28.3587" gradientUnits="userSpaceOnUse"><stop offset=".091576" stop-color="#fff"/><stop offset="1" stop-color="#fff" stop-opacity="0"/></linearGradient><linearGradient id="k" x1="530.968" y1="-103.671" x2="530.605" y2="-76.6413" gradientUnits="userSpaceOnUse"><stop offset=".091576" stop-color="#fff"/><stop offset="1" stop-color="#fff" stop-opacity="0"/></linearGradient><linearGradient id="l" x1="176" y1="1.5" x2="175.538" y2="32.0012" gradientUnits="userSpaceOnUse"><stop offset=".091576" stop-color="#fff"/><stop offset="1" stop-color="#fff" stop-opacity="0"/></linearGradient><linearGradient id="m" x1="528" y1="157.5" x2="527.538" y2="188.001" gradientUnits="userSpaceOnUse"><stop offset=".091576" stop-color="#fff"/><stop offset="1" stop-color="#fff" stop-opacity="0"/></linearGradient><clipPath id="a"><path fill="#fff" d="M0 0h352v156H0z"/></clipPath><clipPath id="f"><path fill="#fff" d="M32.0977 27.2964h11.4072v11.4072H32.0977z"/></clipPath><clipPath id="g"><path fill="#fff" d="M68.0977 71.2964h11.4072v11.4072H68.0977z"/></clipPath><clipPath id="h"><path fill="#fff" d="M111.098 115.296h11.4072v11.4072H111.098z"/></clipPath><filter id="i" x="174.659" y="38.3825" width="165.682" height="112.286" filterUnits="userSpaceOnUse" color-interpolation-filters="sRGB"><feFlood flood-opacity="0" result="BackgroundImageFix"/><feColorMatrix in="SourceAlpha" values="0 0 0 0 0 0 0 0 0 0 0 0 0 0 0 0 0 0 127 0" result="hardAlpha"/><feOffset dy=".723502"/><feGaussianBlur stdDeviation="2.17051"/><feColorMatrix values="0 0 0 0 0 0 0 0 0 0 0 0 0 0 0 0 0 0 0.08 0"/><feBlend in2="BackgroundImageFix" result="effect1_dropShadow_394_65881"/><feColorMatrix in="SourceAlpha" values="0 0 0 0 0 0 0 0 0 0 0 0 0 0 0 0 0 0 127 0" result="hardAlpha"/><feOffset/><feGaussianBlur stdDeviation="1.447"/><feColorMatrix values="0 0 0 0 0 0 0 0 0 0 0 0 0 0 0 0 0 0 0.06 0"/><feBlend in2="effect1_dropShadow_394_65881" result="effect2_dropShadow_394_65881"/><feBlend in="SourceGraphic" in2="effect2_dropShadow_394_65881" result="shape"/></filter></defs></svg>