<svg width="17" height="17" viewBox="0 0 17 17" fill="none" xmlns="http://www.w3.org/2000/svg">
<path d="M6.14096 2.611L6.95496 3.011V5.011H10.155C11.428 5.011 12.6489 5.51671 13.5491 6.41689C14.4492 7.31706 14.955 8.53796 14.955 9.811C14.955 11.084 14.4492 12.3049 13.5491 13.2051C12.6489 14.1053 11.428 14.611 10.155 14.611H8.95496V13.411H10.155C11.1097 13.411 12.0254 13.0317 12.7005 12.3566C13.3757 11.6815 13.755 10.7658 13.755 9.811C13.755 8.85622 13.3757 7.94055 12.7005 7.26542C12.0254 6.59028 11.1097 6.211 10.155 6.211H6.95496V8.211L6.14096 8.611L2.95496 6V5.222L6.14096 2.611Z" fill="#C2C2C2"/>
</svg>
