<svg width="15" height="14" viewBox="0 0 15 14" fill="none" xmlns="http://www.w3.org/2000/svg">
<path d="M2.11538 13H7V7.5H1.5V12.3846C1.5 12.5385 1.5641 12.6795 1.6923 12.8077C1.82052 12.9359 1.96154 13 2.11538 13ZM1.5 6.5H13.5V1.61537C13.5 1.46154 13.4359 1.32052 13.3077 1.1923C13.1795 1.0641 13.0385 1 12.8846 1H2.11538C1.96154 1 1.82052 1.0641 1.6923 1.1923C1.5641 1.32052 1.5 1.46154 1.5 1.61537V6.5ZM8 13H12.8846C13.0385 13 13.1795 12.9359 13.3077 12.8077C13.4359 12.6795 13.5 12.5385 13.5 12.3846V7.5H8V13ZM2.11538 14C1.65513 14 1.27083 13.8458 0.9625 13.5375C0.654167 13.2292 0.5 12.8449 0.5 12.3846V1.61537C0.5 1.15512 0.654167 0.770833 0.9625 0.4625C1.27083 0.154167 1.65513 0 2.11538 0H12.8846C13.3449 0 13.7292 0.154167 14.0375 0.4625C14.3458 0.770833 14.5 1.15512 14.5 1.61537V12.3846C14.5 12.8449 14.3458 13.2292 14.0375 13.5375C13.7292 13.8458 13.3449 14 12.8846 14H2.11538Z" fill="#4C4C4C"/>
</svg>
