<svg width="16" height="16" viewBox="0 0 16 16" fill="#4C4C4C" xmlns="http://www.w3.org/2000/svg">
<path d="m8.23 11.25 1.002-.58.683.183 1.75 3.031.866-.5-1.75-3.03.183-.684 1.003-.579L8.12 6.744l.11 4.505Z"/>
<path d="M16 7V2.5l-.5-.5H.5l-.5.5v11l.5.5H4v-1H1V3h14v4h1Z"/>
<path d="m7.25 12.115-.152-6.263.76-.439 5.349 3.263-.01.86-1.3.75 1.75 3.031-.183.683-1.732 1-.683-.183-1.75-3.03-1.299.75-.75-.422Zm.98-.866 1.002-.579.683.183 1.75 3.031.866-.5-1.75-3.03.183-.684 1.003-.579L8.12 6.744l.11 4.505Z"/>
</svg>
