<svg width="16" height="16" viewBox="0 0 16 16" fill="#1A1A1A" xmlns="http://www.w3.org/2000/svg">
<path d="M7 1H6v4.204l.4.096.6.45V1Z" class="jss1007 jss3411"></path>
<path d="M1 12.349v.419l.348.232h.42l3.855-5.783L9.2 9.9l.684-.08L15 3.681v-.415L14.68 3h-.414L9.42 8.815 5.8 6.1l-.716.123L1 12.349Z" class="jss1007 jss3411"></path>
<path d="M3 15v-2.046l1-1.5V15H3Zm3 0V8.75l1 .75V15H6Zm3 0v-4.192l.316.085.684-.08V15H9Zm3 0V8.843l1-1.2V15h-1ZM10 5v1.557l-.74.888L9 7.25V5h1Z" class="jss1007 jss3411"></path>
</svg>
