<svg width="80" height="80" viewBox="0 0 80 80" fill="none" xmlns="http://www.w3.org/2000/svg">
<path d="M29 32H33V34H29V32Z" fill="#FFC800"/>
<path d="M29 36H33V38H29V36Z" fill="#FFC800"/>
<path d="M33 40H29V42H33V40Z" fill="#FFC800"/>
<path d="M35 32H39V34H35V32Z" fill="#FFC800"/>
<path d="M39 36H35V38H39V36Z" fill="#FFC800"/>
<path d="M35 40H39V42H35V40Z" fill="#FFC800"/>
<path d="M45 32H41V34H45V32Z" fill="#FFC800"/>
<path d="M41 36H45V38H41V36Z" fill="#FFC800"/>
<path d="M45 40H41V42H45V40Z" fill="#FFC800"/>
<path fill-rule="evenodd" clip-rule="evenodd" d="M37 54C40.9737 54 44.629 52.6366 47.5236 50.3521L57.1715 60H60V57.1716L50.352 47.5237C52.6366 44.6291 54 40.9738 54 37C54 27.6112 46.3888 20 37 20C27.6112 20 20 27.6112 20 37C20 46.3888 27.6112 54 37 54ZM37 50C44.1797 50 50 44.1797 50 37C50 29.8203 44.1797 24 37 24C29.8203 24 24 29.8203 24 37C24 44.1797 29.8203 50 37 50Z" fill="#3A032D"/>
</svg>
