<svg focusable="false" viewBox="0 0 16 16" aria-hidden="true" xmlns="http://www.w3.org/2000/svg" width="16" height="16" fill="none"><path d="M9 1h6v6H9V1ZM2 2h4v4H2V2Zm4 8H2v4h4v-4Z" fill="none"></path><path fill-rule="evenodd" d="M1 1v6h6V1H1Zm5 1H2v4h4V2ZM1 9v6h6V9H1Zm5 1H2v4h4v-4Z" clip-rule="evenodd" fill="rgb(76, 76, 76)"></path><path d="M9 5h1v1h1v1H9V5Zm1-3v1H9V1h2v1h-1Zm3 0h1v1h1V1h-2v1Zm1 3h1v2h-2V6h1V5Zm-.1 5.5-.3.5h-1.1a3 3 0 0 1-3 3H9v-1h.5a2 2 0 0 0 2-2h-1.1l-.3-.5 1.7-2h.4l1.7 2Z" fill="rgb(76, 76, 76)" ></path></svg>