<svg width="17" height="17" viewBox="0 0 17 17" fill="none" xmlns="http://www.w3.org/2000/svg">
<g clip-path="url(#clip0_51_3572)">
<path fill-rule="evenodd" clip-rule="evenodd" d="M6.66688 4.701C6.59192 4.64846 6.50398 4.6175 6.41264 4.6115C6.32129 4.60551 6.23005 4.6247 6.14887 4.667C6.06768 4.70929 5.99967 4.77306 5.95224 4.85135C5.90481 4.92965 5.87978 5.01946 5.87988 5.111V12.111C5.87978 12.2025 5.90481 12.2924 5.95224 12.3706C5.99967 12.4489 6.06768 12.5127 6.14887 12.555C6.23005 12.5973 6.32129 12.6165 6.41264 12.6105C6.50398 12.6045 6.59192 12.5735 6.66688 12.521L11.6669 9.021C11.7329 8.97492 11.7868 8.91358 11.824 8.8422C11.8613 8.77082 11.8807 8.69151 11.8807 8.611C11.8807 8.53049 11.8613 8.45118 11.824 8.3798C11.7868 8.30842 11.7329 8.24708 11.6669 8.201L6.66688 4.701ZM10.5079 8.611L6.87988 11.151V6.071L10.5079 8.611Z" fill="#4C4C4C"/>
<path fill-rule="evenodd" clip-rule="evenodd" d="M8.37988 16.611C10.5016 16.611 12.5364 15.7681 14.0367 14.2679C15.537 12.7676 16.3799 10.7327 16.3799 8.611C16.3799 6.48927 15.537 4.45444 14.0367 2.95415C12.5364 1.45385 10.5016 0.611 8.37988 0.611C6.25815 0.611 4.22332 1.45385 2.72303 2.95415C1.22274 4.45444 0.379883 6.48927 0.379883 8.611C0.379883 10.7327 1.22274 12.7676 2.72303 14.2679C4.22332 15.7681 6.25815 16.611 8.37988 16.611ZM8.37988 15.611C10.2364 15.611 12.0169 14.8735 13.3296 13.5607C14.6424 12.248 15.3799 10.4675 15.3799 8.611C15.3799 6.75448 14.6424 4.97401 13.3296 3.66125C12.0169 2.3485 10.2364 1.611 8.37988 1.611C6.52337 1.611 4.74289 2.3485 3.43014 3.66125C2.11738 4.97401 1.37988 6.75448 1.37988 8.611C1.37988 10.4675 2.11738 12.248 3.43014 13.5607C4.74289 14.8735 6.52337 15.611 8.37988 15.611Z" fill="#4C4C4C"/>
</g>
<defs>
<clipPath id="clip0_51_3572">
<rect width="16" height="16" fill="white" transform="translate(0.379883 0.611)"/>
</clipPath>
</defs>
</svg>
