<svg width="16" height="16" viewBox="0 0 16 16" fill="#4C4C4C" xmlns="http://www.w3.org/2000/svg">
<path d="M0 .5v12l.5.5H4v-1H1V9h3V8H1V5h3V4H1V1h6v1h1V1h6v1h1V.5l-.5-.5H.5L0 .5ZM10 8h-.014.028H10Z"/>
<path d="M10 3c2.761 0 5 1.12 5 2.5v5c0 1.38-2.239 2.5-5 2.5s-5-1.12-5-2.5v-5C5 4.12 7.239 3 10 3Zm3.088 3.373c.799-.399.912-.765.912-.873 0-.108-.113-.474-.912-.873C12.35 4.257 11.26 4 10 4s-2.35.257-3.088.627C6.113 5.026 6 5.392 6 5.5c0 .108.113.474.912.873C7.65 6.743 8.74 7 10 7s2.35-.257 3.088-.627ZM10 8c1.636 0 3.088-.393 4-1v1c0 .108-.113.474-.912.873-.738.37-1.829.627-3.088.627-1.26 0-2.35-.257-3.088-.627C6.113 8.474 6 8.108 6 8V7c.912.607 2.364 1 4 1Zm0 2.5c1.636 0 3.088-.393 4-1v1c0 .107-.113.474-.912.873-.738.37-1.829.627-3.088.627-1.26 0-2.35-.257-3.088-.627C6.113 10.974 6 10.608 6 10.5v-1c.912.607 2.364 1 4 1Z"/>
</svg>