<svg xmlns="http://www.w3.org/2000/svg" focusable="false" viewBox="0 0 16 16" aria-hidden="true" width="16" height="16" fill="none">
<g clip-path="url(#edit_svg__a)">
<path fill-rule="evenodd" d="m15.5 3.65-3.124-3L5.5 7.526v3.124h3l7-7Z" clip-rule="evenodd"/>
<path fill-rule="evenodd" d="M12.146.15h.708l3 3v.707l-7.147 7.146H5.5l-.5-.5V7.296L12.146.15ZM6 7.71v2.294h2.293l4.5-4.5L10.5 3.21 6 7.71Zm5.207-5.206L13.5 4.796l1.293-1.292L12.5 1.21l-1.293 1.293Z" clip-rule="evenodd" fill="rgb(76, 76, 76)"/>
<path d="M1.5 15.004h13l.5-.5v-3.5h-1v3H2v-12h3v-1H1.5l-.5.5v13l.5.5Z" fill="rgb(76, 76, 76)"/>
</g><defs><clipPath id="edit_svg__a">
<path fill="#fff" d="M0 0h15.998v16H0z"/></clipPath></defs></svg>