<svg width="17" height="17" viewBox="0 0 17 17" fill="none" xmlns="http://www.w3.org/2000/svg">
<path d="M4.89097 1.611L4.69397 2.573C4.63698 2.8533 4.49879 3.11065 4.29662 3.313C4.09445 3.51535 3.83722 3.65376 3.55697 3.711L2.59497 3.907V4.315L3.55697 4.512C4.12997 4.628 4.57697 5.076 4.69497 5.649L4.89097 6.611H5.29897L5.49497 5.649C5.55204 5.36856 5.69037 5.11112 5.89273 4.90876C6.09509 4.7064 6.35253 4.56806 6.63297 4.511L7.59497 4.315V3.907L6.63297 3.711C6.35253 3.65394 6.09509 3.5156 5.89273 3.31324C5.69037 3.11088 5.55204 2.85344 5.49497 2.573L5.29997 1.611H4.89097Z" fill="#C2C2C2"/>
<path fill-rule="evenodd" clip-rule="evenodd" d="M11.309 3.611H12.738L15.595 6.468V7.897L9.88097 13.611H8.45197L5.59497 10.754V9.325L11.309 3.611ZM12.024 4.325L10.594 5.754L13.453 8.611L14.882 7.182L12.025 4.325H12.024ZM6.30897 10.041L9.88097 6.469L12.738 9.326L9.16597 12.898L6.30897 10.041Z" fill="#C2C2C2"/>
<path d="M1.59497 14.611V15.611H7.59497V14.611H1.59497ZM15.595 14.611H14.595V15.611H15.595V14.611ZM12.595 14.611H13.595V15.611H12.595V14.611ZM11.595 14.611H10.595V15.611H11.595V14.611ZM8.59497 14.611H9.59497V15.611H8.59497V14.611ZM2.85497 9.188L2.97297 8.611H3.21697L3.33497 9.188C3.40497 9.532 3.67397 9.801 4.01797 9.871L4.59497 9.989V10.233L4.01797 10.351C3.84966 10.3852 3.69514 10.4683 3.57369 10.5897C3.45223 10.7112 3.36921 10.8657 3.33497 11.034L3.21697 11.611H2.97297L2.85497 11.034C2.82073 10.8657 2.73771 10.7112 2.61625 10.5897C2.4948 10.4683 2.34028 10.3852 2.17197 10.351L1.59497 10.233V9.989L2.17197 9.871C2.34028 9.83676 2.4948 9.75374 2.61625 9.63228C2.73771 9.51083 2.82073 9.35631 2.85497 9.188Z" fill="#C2C2C2"/>
</svg>
