<svg focusable="false" viewBox="0 0 16 16" aria-hidden="true" xmlns="http://www.w3.org/2000/svg" width="16" height="16" fill="none">
<g fill-rule="evenodd" clip-path="url(#eye_svg__a)" clip-rule="evenodd">
<path d="M1.436 8.548A18.52 18.52 0 0 1 1.016 8 19.73 19.73 0 0 1 3.1 5.609C4.505 4.244 6.28 3 8 3c1.722 0 3.501 1.244 4.913 2.61A19.83 19.83 0 0 1 15.005 8a19.832 19.832 0 0 1-2.092 2.39C11.5 11.757 9.722 13 8 13s-3.495-1.244-4.902-2.609a19.73 19.73 0 0 1-1.663-1.843ZM8 11a3 3 0 1 0 0-6 3 3 0 0 0 0 6Z" ></path>
<path d="M8 11a3 3 0 1 0 0-6 3 3 0 0 0 0 6Zm2-3a2 2 0 1 1-4 0 2 2 0 0 1 4 0Z" fill="rgb(76, 76, 76)" ></path>
<path d="M16 7.65c-.03-.043-.088-.104-.145-.182a20.827 20.827 0 0 0-2.247-2.578C12.176 3.507 10.145 2 8 2 5.855 2 3.83 3.506 2.403 4.891a20.73 20.73 0 0 0-2.369 2.76L0 7.7v.6l.034.05.13.18a20.724 20.724 0 0 0 2.238 2.578C3.83 12.495 5.856 14 8.002 14c2.144 0 4.175-1.506 5.607-2.89a20.824 20.824 0 0 0 2.247-2.578c.057-.078.115-.14.145-.182v-.7Zm-14.564.898A18.52 18.52 0 0 1 1.016 8 19.729 19.729 0 0 1 3.1 5.609C4.505 4.244 6.28 3 8 3c1.722 0 3.5 1.244 4.913 2.61A19.833 19.833 0 0 1 15.005 8a19.834 19.834 0 0 1-2.092 2.39C11.5 11.757 9.722 13 8 13s-3.495-1.244-4.902-2.609a19.729 19.729 0 0 1-1.663-1.843Z" fill="rgb(76, 76, 76)"></path>
<path d="M8 11a3 3 0 1 0 0-6 3 3 0 0 0 0 6Zm2-3a2 2 0 1 1-4 0 2 2 0 0 1 4 0Z" fill="rgb(76, 76, 76)" ></path></g><defs><clipPath id="eye_svg__a">
<path fill="#fff" d="M0 0h16v16H0z"></path></clipPath></defs></svg>