<svg width="18" height="11" viewBox="0 0 18 11" fill="none" xmlns="http://www.w3.org/2000/svg">
<path d="M9.00371 8.62817C9.85056 8.62817 10.5691 8.33177 11.1594 7.73898C11.7497 7.14619 12.0448 6.42637 12.0448 5.57952C12.0448 4.73267 11.7484 4.01411 11.1556 3.42383C10.5628 2.83356 9.84302 2.53842 8.99617 2.53842C8.14932 2.53842 7.43076 2.83481 6.84048 3.4276C6.25021 4.0204 5.95507 4.74022 5.95507 5.58706C5.95507 6.43391 6.25146 7.15247 6.84425 7.74275C7.43705 8.33303 8.15687 8.62817 9.00371 8.62817ZM8.99994 7.83329C8.37494 7.83329 7.84369 7.61454 7.40619 7.17704C6.96869 6.73954 6.74994 6.20829 6.74994 5.58329C6.74994 4.95829 6.96869 4.42704 7.40619 3.98954C7.84369 3.55204 8.37494 3.33329 8.99994 3.33329C9.62494 3.33329 10.1562 3.55204 10.5937 3.98954C11.0312 4.42704 11.2499 4.95829 11.2499 5.58329C11.2499 6.20829 11.0312 6.73954 10.5937 7.17704C10.1562 7.61454 9.62494 7.83329 8.99994 7.83329ZM9.00223 11C7.19729 11 5.5523 10.5088 4.06725 9.5264C2.5822 8.54404 1.47002 7.22967 0.730713 5.58329C1.47002 3.93692 2.58144 2.62255 4.06496 1.64019C5.54848 0.657814 7.19271 0.166626 8.99765 0.166626C10.8026 0.166626 12.4476 0.657814 13.9326 1.64019C15.4177 2.62255 16.5299 3.93692 17.2692 5.58329C16.5299 7.22967 15.4184 8.54404 13.9349 9.5264C12.4514 10.5088 10.8072 11 9.00223 11ZM8.99994 10.1666C10.5694 10.1666 12.0104 9.75343 13.3229 8.92704C14.6354 8.10065 15.6388 6.98607 16.3333 5.58329C15.6388 4.18051 14.6354 3.06593 13.3229 2.23954C12.0104 1.41315 10.5694 0.999959 8.99994 0.999959C7.4305 0.999959 5.98953 1.41315 4.67703 2.23954C3.36453 3.06593 2.36105 4.18051 1.66661 5.58329C2.36105 6.98607 3.36453 8.10065 4.67703 8.92704C5.98953 9.75343 7.4305 10.1666 8.99994 10.1666Z" fill="#4C4C4C"/>
</svg>
