<svg width="17" height="17" viewBox="0 0 17 17" fill="none" xmlns="http://www.w3.org/2000/svg">
<path d="M11.7589 8.611L10.9449 8.211V6.211H7.74495C6.79017 6.211 5.87449 6.59028 5.19936 7.26542C4.52423 7.94055 4.14495 8.85622 4.14495 9.811C4.14495 10.7658 4.52423 11.6815 5.19936 12.3566C5.87449 13.0317 6.79017 13.411 7.74495 13.411H8.94495V14.611H7.74495C6.47191 14.611 5.25101 14.1053 4.35083 13.2051C3.45066 12.3049 2.94495 11.084 2.94495 9.811C2.94495 8.53796 3.45066 7.31706 4.35083 6.41689C5.25101 5.51671 6.47191 5.011 7.74495 5.011H10.9449V3.011L11.7589 2.611L14.9449 5.222V6L11.7589 8.611Z" fill="#C2C2C2"/>
</svg>
