<svg width="16" height="16" viewBox="0 0 16 16" fill="none" xmlns="http://www.w3.org/2000/svg">
<path d="M2.82052 14V6.82052H2V3.87179H5.4282C5.29572 3.7547 5.20406 3.61579 5.1532 3.45505C5.10234 3.29431 5.07692 3.12553 5.07692 2.94872C5.07692 2.50712 5.23148 2.13176 5.5406 1.82265C5.84971 1.51353 6.22507 1.35897 6.66667 1.35897C6.92222 1.35897 7.15684 1.41901 7.37052 1.5391C7.58419 1.65919 7.76838 1.81539 7.92308 2.00769C8.07778 1.81282 8.26197 1.65598 8.47565 1.53717C8.68932 1.41837 8.92393 1.35897 9.17948 1.35897C9.62108 1.35897 9.99644 1.51353 10.3056 1.82265C10.6147 2.13176 10.7692 2.50712 10.7692 2.94872C10.7692 3.12222 10.7432 3.28953 10.691 3.45064C10.6389 3.61175 10.5479 3.75213 10.418 3.87179H14V6.82052H13.1795V14H2.82052ZM9.17948 2.02564C8.91795 2.02564 8.69872 2.1141 8.5218 2.29102C8.34488 2.46795 8.25642 2.68719 8.25642 2.94872C8.25642 3.21025 8.34488 3.42948 8.5218 3.6064C8.69872 3.78333 8.91795 3.87179 9.17948 3.87179C9.44103 3.87179 9.66026 3.78333 9.83718 3.6064C10.0141 3.42948 10.1026 3.21025 10.1026 2.94872C10.1026 2.68719 10.0141 2.46795 9.83718 2.29102C9.66026 2.1141 9.44103 2.02564 9.17948 2.02564ZM5.74358 2.94872C5.74358 3.21025 5.83205 3.42948 6.00898 3.6064C6.18591 3.78333 6.40513 3.87179 6.66667 3.87179C6.9282 3.87179 7.14743 3.78333 7.32435 3.6064C7.50128 3.42948 7.58975 3.21025 7.58975 2.94872C7.58975 2.68719 7.50128 2.46795 7.32435 2.29102C7.14743 2.1141 6.9282 2.02564 6.66667 2.02564C6.40513 2.02564 6.18591 2.1141 6.00898 2.29102C5.83205 2.46795 5.74358 2.68719 5.74358 2.94872ZM2.66667 4.53847V6.15385H7.66667V4.53847H2.66667ZM7.66667 13.3333V6.82052H3.48718V13.3333H7.66667ZM8.33333 13.3333H12.5128V6.82052H8.33333V13.3333ZM13.3333 6.15385V4.53847H8.33333V6.15385H13.3333Z" fill="#D3C7D0"/>
</svg>
