<svg width="64" height="32" viewBox="0 0 64 32" fill="none" xmlns="http://www.w3.org/2000/svg">
<path d="M10.8205 22V14.8206H10V11.8718H13.4282C13.2957 11.7547 13.2041 11.6158 13.1532 11.4551C13.1023 11.2943 13.0769 11.1256 13.0769 10.9488C13.0769 10.5072 13.2315 10.1318 13.5406 9.82269C13.8497 9.51357 14.2251 9.35901 14.6667 9.35901C14.9222 9.35901 15.1568 9.41905 15.3705 9.53914C15.5842 9.65923 15.7684 9.81543 15.9231 10.0077C16.0778 9.81286 16.262 9.65602 16.4757 9.53721C16.6893 9.41841 16.9239 9.35901 17.1795 9.35901C17.6211 9.35901 17.9964 9.51357 18.3056 9.82269C18.6147 10.1318 18.7692 10.5072 18.7692 10.9488C18.7692 11.1223 18.7432 11.2896 18.691 11.4507C18.6389 11.6118 18.5479 11.7522 18.418 11.8718H22V14.8206H21.1795V22H10.8205ZM17.1795 10.0257C16.918 10.0257 16.6987 10.1141 16.5218 10.2911C16.3449 10.468 16.2564 10.6872 16.2564 10.9488C16.2564 11.2103 16.3449 11.4295 16.5218 11.6064C16.6987 11.7834 16.918 11.8718 17.1795 11.8718C17.441 11.8718 17.6603 11.7834 17.8372 11.6064C18.0141 11.4295 18.1026 11.2103 18.1026 10.9488C18.1026 10.6872 18.0141 10.468 17.8372 10.2911C17.6603 10.1141 17.441 10.0257 17.1795 10.0257ZM13.7436 10.9488C13.7436 11.2103 13.8321 11.4295 14.009 11.6064C14.1859 11.7834 14.4051 11.8718 14.6667 11.8718C14.9282 11.8718 15.1474 11.7834 15.3244 11.6064C15.5013 11.4295 15.5898 11.2103 15.5898 10.9488C15.5898 10.6872 15.5013 10.468 15.3244 10.2911C15.1474 10.1141 14.9282 10.0257 14.6667 10.0257C14.4051 10.0257 14.1859 10.1141 14.009 10.2911C13.8321 10.468 13.7436 10.6872 13.7436 10.9488ZM10.6667 12.5385V14.1539H15.6667V12.5385H10.6667ZM15.6667 21.3334V14.8206H11.4872V21.3334H15.6667ZM16.3333 21.3334H20.5128V14.8206H16.3333V21.3334ZM21.3333 14.1539V12.5385H16.3333V14.1539H21.3333Z" fill="#D3C7D0"/>
<path d="M48.0187 19.4872C48.1661 19.4872 48.2904 19.4363 48.3917 19.3345C48.4929 19.2328 48.5436 19.1082 48.5436 18.9608C48.5436 18.8134 48.4927 18.6891 48.391 18.5878C48.2892 18.4865 48.1646 18.4359 48.0172 18.4359C47.8698 18.4359 47.7455 18.4868 47.6442 18.5886C47.5429 18.6903 47.4923 18.8149 47.4923 18.9623C47.4923 19.1096 47.5432 19.234 47.6449 19.3353C47.7467 19.4365 47.8713 19.4872 48.0187 19.4872ZM47.6744 17.2795H48.318C48.335 16.9897 48.3895 16.7543 48.4814 16.5731C48.5733 16.3919 48.7624 16.1607 49.0487 15.8795C49.3461 15.5821 49.5675 15.3156 49.7128 15.0801C49.8581 14.8447 49.9308 14.5721 49.9308 14.2625C49.9308 13.7371 49.7462 13.3184 49.377 13.0064C49.0077 12.6944 48.571 12.5385 48.0667 12.5385C47.5872 12.5385 47.1801 12.6688 46.8455 12.9295C46.5109 13.1902 46.2658 13.4897 46.1102 13.8282L46.7231 14.082C46.8299 13.8393 46.9827 13.6248 47.1814 13.4385C47.3801 13.2521 47.6667 13.159 48.041 13.159C48.4735 13.159 48.7893 13.2776 48.9885 13.5148C49.1876 13.7519 49.2872 14.0128 49.2872 14.2974C49.2872 14.5282 49.2248 14.7344 49.1 14.916C48.9752 15.0977 48.8128 15.2803 48.6128 15.4641C48.2265 15.8205 47.9735 16.1227 47.8538 16.3705C47.7342 16.6184 47.6744 16.9214 47.6744 17.2795ZM48.0022 22C47.1725 22 46.3925 21.8426 45.6621 21.5277C44.9317 21.2128 44.2963 20.7855 43.756 20.2457C43.2157 19.7059 42.7879 19.0711 42.4728 18.3414C42.1576 17.6116 42 16.8319 42 16.0022C42 15.1725 42.1574 14.3925 42.4723 13.6621C42.7872 12.9317 43.2146 12.2963 43.7544 11.756C44.2942 11.2157 44.9289 10.7879 45.6586 10.4728C46.3884 10.1576 47.1681 10 47.9978 10C48.8275 10 49.6075 10.1574 50.3379 10.4723C51.0683 10.7872 51.7037 11.2145 52.244 11.7543C52.7843 12.2941 53.2121 12.9289 53.5272 13.6586C53.8424 14.3884 54 15.1681 54 15.9978C54 16.8275 53.8426 17.6075 53.5277 18.3379C53.2128 19.0683 52.7855 19.7037 52.2457 20.244C51.7059 20.7843 51.0711 21.2121 50.3414 21.5272C49.6116 21.8424 48.8319 22 48.0022 22ZM48 21.3333C49.4889 21.3333 50.75 20.8167 51.7833 19.7833C52.8167 18.75 53.3333 17.4889 53.3333 16C53.3333 14.5111 52.8167 13.25 51.7833 12.2167C50.75 11.1833 49.4889 10.6667 48 10.6667C46.5111 10.6667 45.25 11.1833 44.2167 12.2167C43.1833 13.25 42.6667 14.5111 42.6667 16C42.6667 17.4889 43.1833 18.75 44.2167 19.7833C45.25 20.8167 46.5111 21.3333 48 21.3333Z" fill="#D3C7D0"/>
</svg>
