<svg xmlns="http://www.w3.org/2000/svg" viewBox="0 0 450 450"><path fill="#7b7b7b" fill-rule="evenodd" d="m160 115 22-22v42h-22v-20Zm130 20h-22V93l22 22v20Z"/><path fill="#5a5a5a" d="M182 93h86v21h-86V93Z"/><path fill="#e6e7e8" fill-rule="evenodd" d="M349 357H101c-3.15 0-6.27-.62-9.18-1.83-2.92-1.2-5.56-2.97-7.79-5.2-2.23-2.23-4-4.87-5.2-7.79A23.908 23.908 0 0 1 77 333V176.24L118.24 135h213.52L373 176.24V333c0 3.15-.62 6.27-1.83 9.18-1.2 2.92-2.97 5.56-5.2 7.79-2.23 2.23-4.87 4-7.79 5.2A23.908 23.908 0 0 1 349 357Z"/><path fill="#d0d1d2" fill-rule="evenodd" d="M77 220v-43.76L118.24 135h213.52L373 176.24V220H77Z"/><path fill="#458cf5" fill-rule="evenodd" d="M111 357V187c0-1.31.26-2.61.76-3.83.5-1.21 1.24-2.31 2.17-3.24.93-.93 2.03-1.67 3.24-2.17A10.1 10.1 0 0 1 121 177h208c1.31 0 2.61.26 3.83.76 1.21.5 2.31 1.24 3.24 2.17.93.93 1.67 2.03 2.17 3.24.5 1.22.76 2.52.76 3.83v170H111Z"/><path fill="#fff" d="M111 220h228v137H111V220Z"/><path fill="#d2d3d4" fill-rule="evenodd" d="M271 357v-41l-20-20-13-36 9-23 51 51 9-38 32 32v75h-68Z"/><path fill="#d2d3d4" d="M126 236h76v85h-76v-85Zm0 104h98v17h-98v-17Z"/><path fill="#505050" fill-rule="evenodd" d="M290 325.1V357h-42v-31.45a49.523 49.523 0 0 1-29-44.5c-.1-9.41 2.48-18.65 7.43-26.65A49.608 49.608 0 0 1 247 235.9V283l21 13 22-13v-47.1a49.508 49.508 0 0 1 20.42 18.27A49.445 49.445 0 0 1 318 280.5c0 9.32-2.62 18.44-7.58 26.33A49.508 49.508 0 0 1 290 325.1Z"/><path fill="#e6e7e8" fill-rule="evenodd" d="M134.5 188c3.44 0 6.54 2.07 7.85 5.25a8.49 8.49 0 0 1-1.84 9.26 8.49 8.49 0 0 1-9.26 1.84 8.485 8.485 0 0 1-4.6-11.1 8.4 8.4 0 0 1 1.84-2.76 8.4 8.4 0 0 1 2.76-1.84c1.03-.43 2.13-.65 3.25-.65Zm25 0c3.44 0 6.54 2.07 7.85 5.25a8.49 8.49 0 0 1-1.84 9.26 8.49 8.49 0 0 1-9.26 1.84 8.485 8.485 0 0 1-4.6-11.1 8.4 8.4 0 0 1 1.84-2.76 8.4 8.4 0 0 1 2.76-1.84c1.03-.43 2.13-.65 3.25-.65Z"/></svg>