<svg xmlns="http://www.w3.org/2000/svg" width="80" height="80"><title>google-sheets-logo</title><desc>Created with Sketch.</desc><g fill="none"><g><path id="Rectangle" fill="#54A157" d="M27.97 20h17.66L55 29.5v27.53c0 1.64-1.33 2.97-2.97 2.97H27.97C26.33 60 25 58.67 25 57.03V22.97c0-1.64 1.33-2.97 2.97-2.97z"/><path fill="#E8F5E9" d="M33.4 50.54h3.8V48.6h-3.8v1.94zm0 1.9h-1.84V39.05h16.88V52.44H33.4zm13.2-1.9V48.6h-7.56v1.94h7.55zM33.4 46.7h3.8v-1.93h-3.8v1.94zm13.2 0v-1.93h-7.56v1.94h7.55zm-13.2-3.8h3.8v-1.96h-3.8v1.95zm5.64 0h7.55v-1.96h-7.56v1.95z"/><path id="Rectangle" fill="#E8F5E9" d="M45.63 20L55 29.5h-9.37z"/><path fill="#2E7E31" d="M45.63 29.5H55v9.53z"/></g></g></svg>