<svg width="80" height="80" viewBox="0 0 80 80" fill="none" xmlns="http://www.w3.org/2000/svg">
<path d="M20.9207 48.0993L34.2108 25.278C35.8989 26.2748 44.4116 31.0003 45.7864 31.8988L32.4963 54.7216C31.0428 56.6474 19.0793 51.0221 20.9207 48.0979V48.0993Z" fill="#FBBC04"/>
<path d="M59.1053 48.0988L45.8153 25.2789C43.9573 22.1775 39.9556 21.0505 36.669 22.8822C33.3824 24.714 32.3816 28.6599 34.2396 31.8997L47.5297 54.7225C49.3876 57.8224 53.3893 58.9495 56.6759 57.1177C59.819 55.286 60.9633 51.2002 59.1053 48.1016V48.0988Z" fill="#4285F4"/>
<path d="M26.6713 57.9999C30.3557 57.9999 33.3425 55.0784 33.3425 51.4745C33.3425 47.8707 30.3557 44.9492 26.6713 44.9492C22.9868 44.9492 20 47.8707 20 51.4745C20 55.0784 22.9868 57.9999 26.6713 57.9999Z" fill="#34A853"/>
</svg>
