<svg width="20" height="20" viewBox="0 0 20 20" fill="none" xmlns="http://www.w3.org/2000/svg">
<path d="M4.74359 15.8334V8.2885L2.16988 10.2084L1.66667 9.54812L10 3.33337L13.6218 6.01927V4.16671H15.1923V7.19875L18.3494 9.54812L17.8461 10.2084L15.2724 8.2885V15.8334H11.0257V11.4744H8.97436V15.8334H4.74359ZM5.57692 15H8.14103V10.6411H11.859V15H14.4391V7.67473L10 4.37985L5.57692 7.67473V15ZM8.49359 8.33819H11.5064C11.5064 7.94716 11.3558 7.62531 11.0545 7.37265C10.7532 7.11996 10.4017 6.99362 10 6.99362C9.5983 6.99362 9.2468 7.11948 8.94553 7.37121C8.64423 7.62293 8.49359 7.94526 8.49359 8.33819Z" fill="#4C4C4C"/>
</svg>
