<svg width="80" height="80" viewBox="0 0 80 80" fill="none" xmlns="http://www.w3.org/2000/svg">
<path d="M32.5 40C32.5 41.7455 32.6189 43.4219 32.8371 45H47.1629C47.3811 43.4219 47.5 41.7455 47.5 40C47.5 38.2545 47.3811 36.5781 47.1629 35H32.8371C32.6189 36.5781 32.5 38.2545 32.5 40Z" fill="#FFC800"/>
<path fill-rule="evenodd" clip-rule="evenodd" d="M40 20C51.0457 20 60 28.9543 60 40C60 51.0457 51.0457 60 40 60C28.9543 60 20 51.0457 20 40C20 28.9543 28.9543 20 40 20ZM40 57.5C41.3044 57.5 43.1582 56.3776 44.835 53.0241C45.6077 51.4787 46.255 49.6081 46.7182 47.5H33.2818C33.745 49.6081 34.3923 51.4787 35.165 53.0241C36.8418 56.3776 38.6956 57.5 40 57.5ZM32.8371 45C32.6189 43.4219 32.5 41.7455 32.5 40C32.5 38.2545 32.6189 36.5781 32.8371 35H47.1629C47.3811 36.5781 47.5 38.2545 47.5 40C47.5 41.7455 47.3811 43.4219 47.1629 45H32.8371ZM49.2731 47.5C48.5212 51.2151 47.2273 54.3754 45.5876 56.589C50.1023 55.0689 53.7934 51.7576 55.8159 47.5H49.2731ZM56.7753 45H49.685C49.8906 43.4019 50 41.7265 50 40C50 38.2735 49.8906 36.5981 49.685 35H56.7753C57.2468 36.5843 57.5 38.2626 57.5 40C57.5 41.7374 57.2468 43.4157 56.7753 45ZM30.315 45H23.2247C22.7532 43.4157 22.5 41.7374 22.5 40C22.5 38.2626 22.7532 36.5843 23.2247 35H30.315C30.1094 36.5981 30 38.2735 30 40C30 41.7265 30.1094 43.4019 30.315 45ZM24.1841 47.5H30.7269C31.4788 51.2151 32.7727 54.3754 34.4124 56.589C29.8978 55.0689 26.2066 51.7576 24.1841 47.5ZM33.2818 32.5H46.7182C46.255 30.3919 45.6077 28.5213 44.835 26.9759C43.1582 23.6224 41.3044 22.5 40 22.5C38.6956 22.5 36.8418 23.6224 35.165 26.9759C34.3923 28.5213 33.745 30.3919 33.2818 32.5ZM55.8159 32.5C53.7934 28.2424 50.1023 24.9311 45.5876 23.411C47.2273 25.6246 48.5212 28.7849 49.2731 32.5H55.8159ZM34.4124 23.411C32.7727 25.6246 31.4788 28.7849 30.7269 32.5H24.1841C26.2066 28.2424 29.8978 24.9311 34.4124 23.411Z" fill="#3A032D"/>
</svg>
