<svg width="12" height="12" viewBox="0 0 12 12" fill="none" xmlns="http://www.w3.org/2000/svg">
<path d="M6.00002 8.98077L3.05129 6.03204L3.64104 5.43269L5.58335 7.375V0.166666H6.41669V7.375L8.359 5.43269L8.94875 6.03204L6.00002 8.98077ZM1.51283 11.8333C1.12929 11.8333 0.809048 11.7049 0.552104 11.4479C0.295159 11.191 0.166687 10.8707 0.166687 10.4872V8.46796H1.00002V10.4872C1.00002 10.6154 1.05344 10.7329 1.16027 10.8397C1.26712 10.9466 1.38464 11 1.51283 11H10.4872C10.6154 11 10.7329 10.9466 10.8398 10.8397C10.9466 10.7329 11 10.6154 11 10.4872V8.46796H11.8334V10.4872C11.8334 10.8707 11.7049 11.191 11.4479 11.4479C11.191 11.7049 10.8707 11.8333 10.4872 11.8333H1.51283Z" fill="#4C4C4C"/>
</svg>
