<svg width="17" height="17" viewBox="0 0 17 17" fill="none" xmlns="http://www.w3.org/2000/svg">
<g clip-path="url(#clip0_51_3551)">
<path d="M8.41003 4.106H9.41003V8.106H13.41V9.106H9.41003V13.106H8.41003V9.106H4.41003V8.106H8.41003V4.106Z" fill="#4C4C4C"/>
<path fill-rule="evenodd" clip-rule="evenodd" d="M8.91003 16.606C11.0318 16.606 13.0666 15.7631 14.5669 14.2629C16.0672 12.7626 16.91 10.7277 16.91 8.606C16.91 6.48427 16.0672 4.44944 14.5669 2.94915C13.0666 1.44886 11.0318 0.606003 8.91003 0.606003C6.7883 0.606003 4.75347 1.44886 3.25318 2.94915C1.75289 4.44944 0.910034 6.48427 0.910034 8.606C0.910034 10.7277 1.75289 12.7626 3.25318 14.2629C4.75347 15.7631 6.7883 16.606 8.91003 16.606ZM8.91003 15.606C10.7666 15.606 12.547 14.8685 13.8598 13.5557C15.1725 12.243 15.91 10.4625 15.91 8.606C15.91 6.74949 15.1725 4.96901 13.8598 3.65626C12.547 2.3435 10.7666 1.606 8.91003 1.606C7.05352 1.606 5.27304 2.3435 3.96029 3.65626C2.64753 4.96901 1.91003 6.74949 1.91003 8.606C1.91003 10.4625 2.64753 12.243 3.96029 13.5557C5.27304 14.8685 7.05352 15.606 8.91003 15.606Z" fill="#4C4C4C"/>
</g>
<defs>
<clipPath id="clip0_51_3551">
<rect width="16" height="16" fill="white" transform="translate(0.910034 0.606003)"/>
</clipPath>
</defs>
</svg>
