<svg xmlns="http://www.w3.org/2000/svg" fill="none" viewBox="0 0 80 80">
    <defs>
        <radialGradient id="a" cx="0" cy="0" r="1" gradientTransform="matrix(0 -39.643 36.8711 0 30.625 63.08)" gradientUnits="userSpaceOnUse">
            <stop stop-color="#FD5" />
            <stop offset=".1" stop-color="#FD5" />
            <stop offset=".5" stop-color="#FF543E" />
            <stop offset="1" stop-color="#C837AB" />
        </radialGradient>
        <radialGradient id="b" cx="0" cy="0" r="1" gradientTransform="matrix(3.47805 17.37593 -71.62415 14.33662 13.3 22.882)" gradientUnits="userSpaceOnUse">
            <stop stop-color="#3771C8" />
            <stop offset=".128" stop-color="#3771C8" />
            <stop offset="1" stop-color="#60F" stop-opacity="0" />
        </radialGradient>
    </defs>
    <path fill="url(#a)" fill-rule="evenodd" d="M40 23.606c5.34 0 5.972.021 8.082.117 1.95.089 3.009.415 3.714.688.87.32 1.656.832 2.302 1.497a6.19 6.19 0 0 1 1.497 2.302c.273.705.599 1.764.688 3.713.096 2.11.117 2.742.117 8.082 0 5.34-.021 5.972-.117 8.081-.089 1.95-.415 3.009-.688 3.714a6.629 6.629 0 0 1-3.796 3.795c-.705.274-1.764.6-3.714.688-2.108.096-2.741.117-8.082.117-5.34 0-5.973-.02-8.082-.117-1.95-.089-3.009-.414-3.714-.688a6.192 6.192 0 0 1-2.302-1.496 6.194 6.194 0 0 1-1.497-2.302c-.273-.705-.599-1.764-.688-3.714-.096-2.11-.116-2.741-.116-8.081s.02-5.973.116-8.082c.09-1.95.415-3.008.689-3.713.32-.87.831-1.657 1.496-2.302a6.192 6.192 0 0 1 2.302-1.497c.705-.274 1.764-.6 3.714-.688 2.11-.096 2.742-.117 8.082-.117l-.003.003ZM40.003 20c-5.432 0-6.113.023-8.246.12-2.133.098-3.586.439-4.856.933a9.82 9.82 0 0 0-3.544 2.306 9.82 9.82 0 0 0-2.308 3.544c-.493 1.27-.831 2.726-.928 4.855-.097 2.128-.121 2.812-.121 8.244 0 5.431.023 6.112.12 8.245.098 2.133.436 3.583.93 4.853a9.819 9.819 0 0 0 2.307 3.542A9.806 9.806 0 0 0 26.9 58.95c1.27.494 2.726.832 4.854.93 2.129.096 2.815.12 8.247.12 5.431 0 6.113-.023 8.246-.12 2.133-.098 3.581-.436 4.851-.93a10.22 10.22 0 0 0 5.85-5.85c.495-1.27.834-2.726.93-4.854C59.976 46.117 60 45.43 60 40c0-5.431-.023-6.113-.12-8.246-.098-2.133-.436-3.58-.93-4.85a9.806 9.806 0 0 0-2.307-3.543 9.82 9.82 0 0 0-3.544-2.308c-1.27-.494-2.726-.832-4.854-.93-2.129-.096-2.813-.12-8.245-.12l.003-.003ZM40 29.733a10.27 10.27 0 0 0-7.262 17.53A10.27 10.27 0 1 0 40 29.733Zm0 16.937a6.669 6.669 0 1 1 0-13.337 6.669 6.669 0 0 1 0 13.337Zm13.076-17.344a2.4 2.4 0 1 1-4.8 0 2.4 2.4 0 0 1 4.8 0Z" clip-rule="evenodd" />
    <path fill="url(#b)" fill-rule="evenodd" d="M40 23.606c5.34 0 5.972.021 8.082.117 1.95.089 3.009.415 3.714.688.87.32 1.656.832 2.302 1.497a6.19 6.19 0 0 1 1.497 2.302c.273.705.599 1.764.688 3.713.096 2.11.117 2.742.117 8.082 0 5.34-.021 5.972-.117 8.081-.089 1.95-.415 3.009-.688 3.714a6.629 6.629 0 0 1-3.796 3.795c-.705.274-1.764.6-3.714.688-2.108.096-2.741.117-8.082.117-5.34 0-5.973-.02-8.082-.117-1.95-.089-3.009-.414-3.714-.688a6.192 6.192 0 0 1-2.302-1.496 6.194 6.194 0 0 1-1.497-2.302c-.273-.705-.599-1.764-.688-3.714-.096-2.11-.116-2.741-.116-8.081s.02-5.973.116-8.082c.09-1.95.415-3.008.689-3.713.32-.87.831-1.657 1.496-2.302a6.192 6.192 0 0 1 2.302-1.497c.705-.274 1.764-.6 3.714-.688 2.11-.096 2.742-.117 8.082-.117l-.003.003ZM40.003 20c-5.432 0-6.113.023-8.246.12-2.133.098-3.586.439-4.856.933a9.82 9.82 0 0 0-3.544 2.306 9.82 9.82 0 0 0-2.308 3.544c-.493 1.27-.831 2.726-.928 4.855-.097 2.128-.121 2.812-.121 8.244 0 5.431.023 6.112.12 8.245.098 2.133.436 3.583.93 4.853a9.819 9.819 0 0 0 2.307 3.542A9.806 9.806 0 0 0 26.9 58.95c1.27.494 2.726.832 4.854.93 2.129.096 2.815.12 8.247.12 5.431 0 6.113-.023 8.246-.12 2.133-.098 3.581-.436 4.851-.93a10.22 10.22 0 0 0 5.85-5.85c.495-1.27.834-2.726.93-4.854C59.976 46.117 60 45.43 60 40c0-5.431-.023-6.113-.12-8.246-.098-2.133-.436-3.58-.93-4.85a9.806 9.806 0 0 0-2.307-3.543 9.82 9.82 0 0 0-3.544-2.308c-1.27-.494-2.726-.832-4.854-.93-2.129-.096-2.813-.12-8.245-.12l.003-.003ZM40 29.733a10.27 10.27 0 0 0-7.262 17.53A10.27 10.27 0 1 0 40 29.733Zm0 16.937a6.669 6.669 0 1 1 0-13.337 6.669 6.669 0 0 1 0 13.337Zm13.076-17.344a2.4 2.4 0 1 1-4.8 0 2.4 2.4 0 0 1 4.8 0Z" clip-rule="evenodd" />
</svg>