<svg width="20" height="20" viewBox="0 0 20 20" fill="none" xmlns="http://www.w3.org/2000/svg">
<path d="M15.2084 11.25V8.75002H12.7084V7.91668H15.2084V5.41668H16.0417V7.91668H18.5417V8.75002H16.0417V11.25H15.2084ZM7.50002 9.4872C6.81252 9.4872 6.22398 9.24241 5.7344 8.75283C5.24481 8.26325 5.00002 7.6747 5.00002 6.9872C5.00002 6.29969 5.24481 5.71114 5.7344 5.22156C6.22398 4.73197 6.81252 4.48718 7.50002 4.48718C8.18752 4.48718 8.77606 4.73197 9.26565 5.22156C9.75523 5.71114 10 6.29969 10 6.9872C10 7.6747 9.75523 8.26325 9.26565 8.75283C8.77606 9.24241 8.18752 9.4872 7.50002 9.4872ZM1.66669 15.5128V14.141C1.66669 13.797 1.76685 13.4752 1.96717 13.1755C2.16749 12.8758 2.43699 12.6432 2.77567 12.4776C3.56199 12.1004 4.34884 11.8176 5.13623 11.629C5.92363 11.4404 6.71156 11.3462 7.50002 11.3462C8.28848 11.3462 9.07641 11.4404 9.86381 11.629C10.6512 11.8176 11.4381 12.1004 12.2244 12.4776C12.5631 12.6432 12.8326 12.8758 13.0329 13.1755C13.2332 13.4752 13.3334 13.797 13.3334 14.141V15.5128H1.66669ZM2.50002 14.6795H12.5V14.141C12.5 13.9562 12.4405 13.7826 12.3213 13.6202C12.2022 13.4578 12.0374 13.3205 11.8269 13.2083C11.141 12.8761 10.4339 12.6215 9.70535 12.4447C8.97687 12.2679 8.24176 12.1795 7.50002 12.1795C6.75828 12.1795 6.02317 12.2679 5.29469 12.4447C4.56619 12.6215 3.85899 12.8761 3.1731 13.2083C2.96263 13.3205 2.79783 13.4578 2.67871 13.6202C2.55958 13.7826 2.50002 13.9562 2.50002 14.141V14.6795ZM7.50002 8.65387C7.95835 8.65387 8.35072 8.49068 8.6771 8.16429C9.00349 7.8379 9.16669 7.44554 9.16669 6.9872C9.16669 6.52887 9.00349 6.13651 8.6771 5.81012C8.35072 5.48373 7.95835 5.32054 7.50002 5.32054C7.04169 5.32054 6.64933 5.48373 6.32294 5.81012C5.99655 6.13651 5.83335 6.52887 5.83335 6.9872C5.83335 7.44554 5.99655 7.8379 6.32294 8.16429C6.64933 8.49068 7.04169 8.65387 7.50002 8.65387Z" fill="#D3C7D0"/>
</svg>
