<svg width="33" height="20" viewBox="0 0 33 20" fill="none" xmlns="http://www.w3.org/2000/svg">
<path d="M5.41663 17.0833C4.7179 17.0833 4.12656 16.8413 3.64258 16.3573C3.15861 15.8734 2.91663 15.282 2.91663 14.5833C2.91663 13.8846 3.15861 13.2932 3.64258 12.8093C4.12656 12.3253 4.7179 12.0833 5.41663 12.0833H7.08329V7.91663H5.41663C4.7179 7.91663 4.12656 7.67464 3.64258 7.19067C3.15861 6.7067 2.91663 6.11535 2.91663 5.41663C2.91663 4.7179 3.15861 4.12656 3.64258 3.64258C4.12656 3.15861 4.7179 2.91663 5.41663 2.91663C6.11535 2.91663 6.7067 3.15861 7.19067 3.64258C7.67464 4.12656 7.91663 4.7179 7.91663 5.41663V7.08329H12.0833V5.41663C12.0833 4.7179 12.3253 4.12656 12.8093 3.64258C13.2932 3.15861 13.8846 2.91663 14.5833 2.91663C15.282 2.91663 15.8734 3.15861 16.3573 3.64258C16.8413 4.12656 17.0833 4.7179 17.0833 5.41663C17.0833 6.11535 16.8413 6.7067 16.3573 7.19067C15.8734 7.67464 15.282 7.91663 14.5833 7.91663H12.9166V12.0833H14.5833C15.282 12.0833 15.8734 12.3253 16.3573 12.8093C16.8413 13.2932 17.0833 13.8846 17.0833 14.5833C17.0833 15.282 16.8413 15.8734 16.3573 16.3573C15.8734 16.8413 15.282 17.0833 14.5833 17.0833C13.8846 17.0833 13.2932 16.8413 12.8093 16.3573C12.3253 15.8734 12.0833 15.282 12.0833 14.5833V12.9166H7.91663V14.5833C7.91663 15.282 7.67464 15.8734 7.19067 16.3573C6.7067 16.8413 6.11535 17.0833 5.41663 17.0833ZM5.41663 16.25C5.87068 16.25 6.26197 16.0857 6.5905 15.7572C6.91903 15.4286 7.08329 15.0373 7.08329 14.5833V12.9166H5.41663C4.96257 12.9166 4.57128 13.0809 4.24275 13.4094C3.91422 13.7379 3.74996 14.1292 3.74996 14.5833C3.74996 15.0373 3.91422 15.4286 4.24275 15.7572C4.57128 16.0857 4.96257 16.25 5.41663 16.25ZM14.5833 16.25C15.0373 16.25 15.4286 16.0857 15.7572 15.7572C16.0857 15.4286 16.25 15.0373 16.25 14.5833C16.25 14.1292 16.0857 13.7379 15.7572 13.4094C15.4286 13.0809 15.0373 12.9166 14.5833 12.9166H12.9166V14.5833C12.9166 15.0373 13.0809 15.4286 13.4094 15.7572C13.7379 16.0857 14.1292 16.25 14.5833 16.25ZM7.91663 12.0833H12.0833V7.91663H7.91663V12.0833ZM5.41663 7.08329H7.08329V5.41663C7.08329 4.96257 6.91903 4.57128 6.5905 4.24275C6.26197 3.91422 5.87068 3.74996 5.41663 3.74996C4.96257 3.74996 4.57128 3.91422 4.24275 4.24275C3.91422 4.57128 3.74996 4.96257 3.74996 5.41663C3.74996 5.87068 3.91422 6.26197 4.24275 6.5905C4.57128 6.91903 4.96257 7.08329 5.41663 7.08329ZM12.9166 7.08329H14.5833C15.0373 7.08329 15.4286 6.91903 15.7572 6.5905C16.0857 6.26197 16.25 5.87068 16.25 5.41663C16.25 4.96257 16.0857 4.57128 15.7572 4.24275C15.4286 3.91422 15.0373 3.74996 14.5833 3.74996C14.1292 3.74996 13.7379 3.91422 13.4094 4.24275C13.0809 4.57128 12.9166 4.96257 12.9166 5.41663V7.08329Z" fill="#9D8196"/>
<path d="M26.3191 14H25.2805V4.25407H26.3191V14ZM28.3537 8.02439L31.8537 14H30.6301L27.6423 8.79268L28.3537 8.02439ZM31.8963 4.25407L28.1545 8.47968L28.0549 8.5935L26.0203 10.8984L25.7785 9.8313L30.7439 4.25407H31.8963Z" fill="#9D8196"/>
</svg>
