<svg width="16" height="16" viewBox="0 0 16 16" fill="#4C4C4C" xmlns="http://www.w3.org/2000/svg">
<path d="M2.201 13.799a4.1 4.1 0 0 1 0-5.799l1.45-1.45a4.1 4.1 0 0 1 5.799 0l.725.725-.363.363h-.725l-.362-.363a3.075 3.075 0 0 0-4.35 0l-1.45 1.45a3.075 3.075 0 1 0 4.35 4.35l1.45-1.45h.725l.362.362L8 13.799a4.1 4.1 0 0 1-5.799 0Z"/>
<path d="M6.188 4.013 8 2.201A4.1 4.1 0 0 1 13.799 8l-1.45 1.45a4.1 4.1 0 0 1-5.799 0l-.725-.725.363-.363h.725l.362.363a3.075 3.075 0 0 0 4.35 0l1.45-1.45a3.075 3.075 0 0 0-4.35-4.35l-1.45 1.45H6.55l-.362-.362Z"/>
</svg>
