<svg width="17" height="17" viewBox="0 0 17 17" fill="none" xmlns="http://www.w3.org/2000/svg">
<path d="M2.61011 2.606V15.606H3.61011V2.106L3.11011 1.606H2.11011L1.61011 2.106V2.606H2.61011ZM4.61011 2.106V2.606H8.61011V8.606H5.11011L4.61011 9.106V15.106L5.11011 15.606H9.61011V14.606H5.61011V9.606H9.11011L9.61011 9.106V2.106L9.11011 1.606H5.11011L4.61011 2.106ZM15.1101 1.606H11.1101L10.6101 2.106V2.606H14.6101V8.606H11.6101V9.606H14.6101V14.606H10.6101V15.106L11.1101 15.606H15.1101L15.6101 15.106V2.106L15.1101 1.606Z" fill="#4C4C4C"/>
</svg>
