<svg width="80" height="80" viewBox="0 0 80 80" fill="none" xmlns="http://www.w3.org/2000/svg">
<path d="M22.5145 20.8119L45.6391 19.0955C48.4795 18.8505 49.2094 19.0157 50.9953 20.3205L58.3771 25.5466C59.5946 26.4454 60 26.6904 60 27.669V56.3309C60 58.127 59.3508 59.1896 57.0788 59.352L30.225 60.9858C28.5199 61.067 27.7077 60.822 26.8148 59.6782L21.3791 52.5747C20.404 51.2671 20 50.2885 20 49.1447V23.6678C20 22.1992 20.6492 20.9743 22.5145 20.8119Z" fill="white"/>
<path d="M45.6391 19.0955L22.5145 20.8119C20.6492 20.9743 20 22.1992 20 23.6678V49.1447C20 50.2885 20.404 51.2671 21.3791 52.5747L26.8148 59.6782C27.7077 60.822 28.5199 61.067 30.225 60.9858L57.0788 59.352C59.3494 59.1896 60 58.127 60 56.3309V27.669C60 26.7408 59.635 26.4734 58.561 25.681C58.4992 25.6363 58.4374 25.5915 58.3757 25.5466L50.9953 20.3205C49.2094 19.0157 48.4795 18.8505 45.6391 19.0955ZM30.8323 27.2C28.6397 27.3484 28.1424 27.382 26.897 26.3642L23.7306 23.833C23.4088 23.5054 23.5704 23.0966 24.3811 23.0154L46.6114 21.3831C48.4781 21.2193 49.4504 21.873 50.1804 22.4442L53.9932 25.2204C54.1562 25.303 54.5615 25.7916 54.074 25.7916L31.1165 27.1804L30.8323 27.2ZM28.2761 56.0859V31.7541C28.2761 30.6915 28.6007 30.2016 29.573 30.119L55.9407 28.5678C56.835 28.4866 57.239 29.0578 57.239 30.119V54.2883C57.239 55.3509 57.076 56.2497 55.6161 56.3309L30.3838 57.8008C28.9239 57.882 28.2761 57.3934 28.2761 56.0859ZM53.1838 33.0589C53.3454 33.7939 53.1838 34.5289 52.4525 34.6129L51.2363 34.8551V52.8197C50.1804 53.3909 49.2081 53.7171 48.3959 53.7171C47.0976 53.7171 46.773 53.3083 45.8007 52.0847L37.8477 39.51V51.6759L40.3636 52.2485C40.3636 52.2485 40.3636 53.7185 38.3339 53.7185L32.738 54.0447C32.5751 53.7171 32.738 52.9009 33.305 52.7385L34.7663 52.3311V36.2453L32.738 36.0801C32.5751 35.3451 32.9804 34.2839 34.1172 34.2013L40.1212 33.7953L48.3959 46.5324V35.2639L46.2868 35.0203C46.1238 34.1201 46.773 33.4663 47.5838 33.3865L53.1838 33.0589Z" fill="black"/>
</svg>
