<svg width="80" height="80" viewBox="0 0 80 80" fill="none" xmlns="http://www.w3.org/2000/svg">
<g clip-path="url(#clip0_18040_94716)">
<path d="M57.1368 36.3683C57.5837 35.0216 57.7382 33.595 57.5899 32.1838C57.4416 30.7726 56.9939 29.4094 56.2768 28.185C55.2134 26.3339 53.5896 24.8684 51.6396 23.9997C49.6896 23.131 47.5141 22.9041 45.4268 23.3516C44.2412 22.0327 42.7296 21.049 41.0436 20.4991C39.3576 19.9492 37.5566 19.8525 35.8214 20.2188C34.0862 20.5851 32.478 21.4014 31.1581 22.5859C29.8382 23.7703 28.8531 25.2811 28.3018 26.9666C26.9111 27.2517 25.5974 27.8304 24.4483 28.6639C23.2992 29.4974 22.3412 30.5666 21.6384 31.8C20.5634 33.6479 20.1039 35.79 20.3265 37.9163C20.5491 40.0426 21.4423 42.0431 22.8768 43.6283C22.4276 44.9745 22.271 46.4011 22.4176 47.8126C22.5642 49.2242 23.0105 50.5882 23.7268 51.8133C24.7916 53.665 26.4168 55.1309 28.3683 55.9995C30.3197 56.8681 32.4966 57.0947 34.5851 56.6466C35.5271 57.708 36.6848 58.5561 37.9807 59.1344C39.2766 59.7127 40.681 60.0077 42.1001 60C44.2396 60.0019 46.3243 59.324 48.0534 58.064C49.7825 56.804 51.0665 55.0272 51.7201 52.99C53.1103 52.7041 54.4235 52.1252 55.5722 51.2917C56.7209 50.4583 57.6787 49.3895 58.3818 48.1566C59.4441 46.3115 59.8957 44.1777 59.6721 42.0604C59.4485 39.9432 58.5611 37.9508 57.1368 36.3683V36.3683ZM42.1001 57.3833C40.3484 57.3862 38.6515 56.7726 37.3068 55.65L37.5418 55.515L45.5068 50.9183C45.7047 50.8019 45.8689 50.6361 45.9835 50.4372C46.098 50.2382 46.1589 50.0129 46.1601 49.7833V38.555L49.5268 40.5016C49.5434 40.5101 49.5578 40.5223 49.5688 40.5374C49.5798 40.5524 49.5871 40.5699 49.5901 40.5883V49.8933C49.5857 51.8784 48.7952 53.781 47.3915 55.1847C45.9878 56.5884 44.0852 57.3789 42.1001 57.3833V57.3833ZM26.0001 50.5066C25.1209 48.9893 24.8052 47.2105 25.1084 45.4833L25.3451 45.625L33.3168 50.2233C33.5139 50.3389 33.7383 50.3998 33.9668 50.3998C34.1953 50.3998 34.4197 50.3389 34.6168 50.2233L44.3551 44.6083V48.495C44.3544 48.5152 44.3491 48.5351 44.3396 48.553C44.33 48.5709 44.3165 48.5864 44.3001 48.5983L36.2334 53.25C34.5121 54.2409 32.468 54.5086 30.5495 53.9943C28.6311 53.48 26.9949 52.2257 26.0001 50.5066V50.5066ZM23.9001 33.16C24.7851 31.6326 26.182 30.4678 27.8434 29.8716V39.3333C27.8405 39.5618 27.899 39.7869 28.0128 39.985C28.1265 40.1832 28.2914 40.3472 28.4901 40.46L38.1818 46.0516L34.8151 47.9983C34.7969 48.0079 34.7766 48.013 34.7559 48.013C34.7353 48.013 34.715 48.0079 34.6968 47.9983L26.6468 43.355C24.928 42.3594 23.6739 40.7233 23.159 38.8049C22.6442 36.8865 22.9107 34.8423 23.9001 33.12V33.16ZM51.5618 39.585L41.8401 33.94L45.1984 32C45.2167 31.9903 45.237 31.9853 45.2576 31.9853C45.2782 31.9853 45.2985 31.9903 45.3168 32L53.3668 36.6516C54.5983 37.3615 55.6025 38.4072 56.2618 39.6665C56.9212 40.9258 57.2086 42.3468 57.0905 43.7634C56.9723 45.1799 56.4535 46.5336 55.5946 47.6663C54.7357 48.799 53.5722 49.6639 52.2401 50.16V40.6966C52.2331 40.4684 52.1669 40.246 52.048 40.0511C51.9291 39.8562 51.7615 39.6955 51.5618 39.585V39.585ZM54.9118 34.5466L54.6768 34.405L46.7201 29.7683C46.5217 29.652 46.2959 29.5907 46.0659 29.5907C45.836 29.5907 45.6102 29.652 45.4118 29.7683L35.6818 35.3833V31.495C35.6798 31.4754 35.683 31.4556 35.6912 31.4378C35.6994 31.4199 35.7123 31.4045 35.7284 31.3933L43.7784 26.7483C45.0124 26.0382 46.4229 25.6939 47.8452 25.7558C49.2676 25.8176 50.6429 26.283 51.8105 27.0975C52.9781 27.9121 53.8898 29.0421 54.439 30.3556C54.9882 31.6691 55.1521 33.1117 54.9118 34.515V34.5466ZM33.8451 41.4383L30.4784 39.4983C30.4615 39.4881 30.447 39.4744 30.4361 39.4579C30.4251 39.4415 30.418 39.4228 30.4151 39.4033V30.125C30.4179 28.7018 30.8256 27.3088 31.5905 26.1087C32.3554 24.9085 33.446 23.9508 34.7349 23.3473C36.0238 22.7439 37.4578 22.5196 38.8694 22.7007C40.281 22.8817 41.6119 23.4607 42.7068 24.37L42.4701 24.5033L34.5068 29.1C34.3086 29.2161 34.144 29.3818 34.0291 29.5808C33.9143 29.7798 33.8532 30.0052 33.8518 30.235L33.8451 41.4383ZM35.6734 37.4966L40.0101 34.9966L44.3551 37.4966V42.495L40.0268 44.995L35.6818 42.495L35.6734 37.4966Z" fill="black"/>
</g>
<defs>
<clipPath id="clip0_18040_94716">
<rect width="40" height="40" fill="white" transform="translate(20 20)"/>
</clipPath>
</defs>
</svg>
