<svg width="36" height="36" viewBox="0 0 36 36" fill="none" xmlns="http://www.w3.org/2000/svg">
<path d="M13.3846 18.8333C13.1554 18.8333 12.9593 18.7517 12.7961 18.5885C12.6329 18.4254 12.5513 18.2292 12.5513 18C12.5513 17.7708 12.6329 17.5747 12.7961 17.4115C12.9593 17.2483 13.1554 17.1667 13.3846 17.1667C13.6138 17.1667 13.81 17.2483 13.9732 17.4115C14.1364 17.5747 14.218 17.7708 14.218 18C14.218 18.2292 14.1364 18.4254 13.9732 18.5885C13.81 18.7517 13.6138 18.8333 13.3846 18.8333ZM18 18.8333C17.7708 18.8333 17.5747 18.7517 17.4115 18.5885C17.2483 18.4254 17.1667 18.2292 17.1667 18C17.1667 17.7708 17.2483 17.5747 17.4115 17.4115C17.5747 17.2483 17.7708 17.1667 18 17.1667C18.2292 17.1667 18.4253 17.2483 18.5885 17.4115C18.7517 17.5747 18.8333 17.7708 18.8333 18C18.8333 18.2292 18.7517 18.4254 18.5885 18.5885C18.4253 18.7517 18.2292 18.8333 18 18.8333ZM22.6154 18.8333C22.3862 18.8333 22.19 18.7517 22.0268 18.5885C21.8636 18.4254 21.782 18.2292 21.782 18C21.782 17.7708 21.8636 17.5747 22.0268 17.4115C22.19 17.2483 22.3862 17.1667 22.6154 17.1667C22.8446 17.1667 23.0407 17.2483 23.2039 17.4115C23.3671 17.5747 23.4487 17.7708 23.4487 18C23.4487 18.2292 23.3671 18.4254 23.2039 18.5885C23.0407 18.7517 22.8446 18.8333 22.6154 18.8333Z" fill="#4C4C4C"/>
</svg>