<svg width="58" height="32" viewBox="0 0 58 32" fill="none" xmlns="http://www.w3.org/2000/svg">
<g clip-path="url(#clip0_252_179)">
<path d="M17.5044 13.8248C17.5044 11.1307 15.7474 10.0598 12.8526 10.0598H8V21.6391H10.6606V12.4694H12.8693C14.208 12.4694 14.9108 12.7371 14.9108 14.0256C14.9108 15.314 14.2247 15.7491 12.8693 15.7491H10.6606L14.6598 21.6391H17.7888L14.5594 17.1212C16.3665 16.7196 17.5044 15.5315 17.5044 13.8248ZM39.1402 15.2303C38.7386 16.6359 38.5044 17.6734 38.3036 18.6271H38.2701C38.0526 17.8072 37.7681 16.7363 37.4167 15.5817L36.4295 12.4861H34.0869L33.0829 15.5817C32.7147 16.7363 32.4303 17.7905 32.2295 18.6271H32.196C31.9952 17.6734 31.7944 16.569 31.3761 15.1801L30.5896 12.4861H28.0797L31.008 21.6391H33.4175L34.4717 18.1921C34.8398 17.0208 35.0072 16.3347 35.2414 15.3475H35.2749C35.5092 16.3347 35.6765 17.0208 36.0446 18.1921L37.0988 21.6391H39.5084L42.4367 12.4861H39.9434L39.1402 15.2303ZM22.9259 19.6981C21.6542 19.6981 20.8845 18.6104 20.8845 17.0542C20.8845 15.5148 21.6709 14.4104 22.9259 14.4104C24.1809 14.4104 24.9506 15.5148 24.9506 17.071C24.9673 18.6271 24.1976 19.6981 22.9259 19.6981ZM22.9259 12.2351C19.8972 12.2351 18.408 14.5108 18.408 17.0542C18.408 19.6311 19.8972 21.8734 22.9259 21.8734C25.9546 21.8734 27.4438 19.6311 27.4438 17.0542C27.4438 14.5275 25.9546 12.2351 22.9259 12.2351ZM49.8829 18.8614C49.8829 20.6184 48.5275 21.8901 46.4693 21.8901C44.1936 21.8901 43.2398 20.8694 43.2398 20.8694V18.5769H43.3068C44.043 19.2797 45.298 19.7483 46.2685 19.7483C47.0382 19.7483 47.4064 19.4471 47.4064 18.9953C47.4064 18.6271 47.2056 18.4431 46.5363 18.2256L45.5825 17.9076C44.2271 17.4558 43.1394 16.82 43.1394 15.0965C43.1394 13.3897 44.4948 12.2351 46.553 12.2351H46.804C48.6279 12.302 49.6151 13.0383 49.6151 13.0383V15.3977H49.5482C48.9793 14.8957 47.8749 14.3769 46.7538 14.3769C45.9506 14.3769 45.5992 14.6614 45.5992 15.0463C45.5992 15.4311 45.9004 15.6319 46.4526 15.8327L47.3729 16.1674C48.7116 16.6694 49.8829 17.2885 49.8829 18.8614Z" fill="white"/>
</g>
<defs>
<clipPath id="clip0_252_179">
<rect width="42" height="12" fill="white" transform="translate(8 10)"/>
</clipPath>
</defs>
</svg>
