<svg focusable="false" viewBox="0 0 16 16" aria-hidden="true" xmlns="http://www.w3.org/2000/svg" width="16" height="16" fill="none"><path d="M12 12.973a4.537 4.537 0 0 1-.5.027h-1.472L11 11.814 10.6 11h-2V8H7.4v3h-2l-.4.814L5.972 13H4v-1a3 3 0 1 1 0-6h1V5a3 3 0 0 1 5.909-.739l.175.692.711.06A3.5 3.5 0 0 1 12 11.964v1.008Z" fill="none" ></path><path fill-rule="evenodd" d="m10.909 4.261.175.692.711.06A3.5 3.5 0 0 1 12 11.964v1.008a4.5 4.5 0 0 0-.122-8.957A4.002 4.002 0 0 0 4 5a4 4 0 1 0 0 8v-1a3 3 0 1 1 0-6h1V5a3 3 0 0 1 5.909-.739Z" clip-rule="evenodd" fill="rgb(76, 76, 76)" ></path><path d="m5.4 11-.4.814L7.611 15h.778L11 11.814 10.6 11h-2V8H7.4v3h-2Z" fill="rgb(76, 76, 76)" ></path></svg>