<svg width="16" height="17" viewBox="0 0 16 17" fill="none" xmlns="http://www.w3.org/2000/svg">
<path fill-rule="evenodd" clip-rule="evenodd" d="M10.8641 11.657C9.68215 12.6566 8.15957 13.1607 6.61461 13.0639C5.06966 12.9671 3.62189 12.2769 2.57389 11.1377C1.5259 9.99838 0.958772 8.49814 0.991052 6.95049C1.02333 5.40284 1.65252 3.92756 2.74711 2.83297C3.8417 1.73838 5.31698 1.10919 6.86463 1.07691C8.41228 1.04463 9.91251 1.61176 11.0518 2.65975C12.1911 3.70775 12.8812 5.15552 12.978 6.70048C13.0748 8.24543 12.5707 9.76801 11.5711 10.95L14.9901 14.367V15.075H14.2831L10.8641 11.657ZM11.9901 7.075C11.9901 8.40108 11.4634 9.67285 10.5257 10.6105C9.58799 11.5482 8.31622 12.075 6.99014 12.075C5.66405 12.075 4.39228 11.5482 3.4546 10.6105C2.51692 9.67285 1.99014 8.40108 1.99014 7.075C1.99014 5.74891 2.51692 4.47714 3.4546 3.53946C4.39228 2.60178 5.66405 2.075 6.99014 2.075C8.31622 2.075 9.58799 2.60178 10.5257 3.53946C11.4634 4.47714 11.9901 5.74891 11.9901 7.075Z" fill="#4C4C4C"/>
</svg>
