<svg focusable="false" viewBox="0 0 16 16" aria-hidden="true" xmlns="http://www.w3.org/2000/svg" width="16" height="16" fill="none">
<path fill-rule="evenodd" d="M4.16 6.877 2 7.5v1l2.16.623c.108.372.27.722.476 1.042l-1.232 1.724.707.707 1.724-1.232c.32.206.67.368 1.042.476L7.5 14h1l.623-2.16a3.97 3.97 0 0 0 1.042-.476l1.724 1.232.707-.707-1.232-1.724c.206-.32.368-.67.476-1.042L14 8.5v-1l-2.16-.623a3.978 3.978 0 0 0-.476-1.042l1.232-1.724-.707-.707-1.724 1.232a3.98 3.98 0 0 0-1.042-.476L8.5 2h-1l-.623 2.16a3.98 3.98 0 0 0-1.041.476L4.11 3.404l-.707.707 1.232 1.724a3.98 3.98 0 0 0-.476 1.042ZM8 10a2 2 0 1 0 0-4 2 2 0 0 0 0 4Z" clip-rule="evenodd" ></path>
<path fill-rule="evenodd" d="M8 10a2 2 0 1 0 0-4 2 2 0 0 0 0 4Zm1-2a1 1 0 1 1-2 0 1 1 0 0 1 2 0Z" clip-rule="evenodd" fill="#989898"></path>
<path fill-rule="evenodd" d="M3.536 9.983 1 9.253V6.747l2.536-.731-1.438-2.014 1.905-1.905 2.014 1.438L6.747 1h2.505l.731 2.536 2.014-1.438 1.905 1.905-1.438 2.014 2.536.73v2.505l-2.536.731 1.438 2.014-1.905 1.905-2.014-1.438L9.253 15H6.747l-.731-2.536-2.014 1.438-1.905-1.905 1.438-2.014ZM2 7.5l2.16-.623a3.98 3.98 0 0 1 .476-1.042L3.404 4.111l.707-.707 1.725 1.232a3.98 3.98 0 0 1 1.041-.476L7.5 2h1l.623 2.16c.372.108.722.27 1.042.476l1.724-1.232.707.707-1.232 1.724c.206.32.368.67.476 1.042L14 7.5v1l-2.16.623a3.97 3.97 0 0 1-.476 1.042l1.232 1.724-.707.707-1.724-1.232a3.97 3.97 0 0 1-1.042.476L8.5 14h-1l-.623-2.16a3.978 3.978 0 0 1-1.042-.476l-1.724 1.232-.707-.707 1.232-1.724a3.98 3.98 0 0 1-.476-1.042L2 8.5v-1Z" clip-rule="evenodd" fill="#989898"></path>
</svg>