<svg width="16" height="17" viewBox="0 0 16 17" fill="none" xmlns="http://www.w3.org/2000/svg">
<g clip-path="url(#clip0_51_3656)">
<path fill-rule="evenodd" clip-rule="evenodd" d="M8.01051 9.106C7.47994 9.106 6.97111 9.31676 6.59594 9.69193C6.22078 10.0671 6.01001 10.5759 6.01001 11.1065C6.01001 11.6371 6.22078 12.1459 6.59594 12.5211C6.97111 12.8962 7.47994 13.107 8.01051 13.107C8.54108 13.107 9.04991 12.8962 9.42508 12.5211C9.80024 12.1459 10.011 11.6371 10.011 11.1065C10.011 10.5759 9.80024 10.0671 9.42508 9.69193C9.04991 9.31676 8.54108 9.106 8.01051 9.106ZM7.01026 11.1065C7.01026 10.8412 7.11564 10.5868 7.30323 10.3992C7.49081 10.2116 7.74523 10.1062 8.01051 10.1062C8.27579 10.1062 8.53021 10.2116 8.71779 10.3992C8.90538 10.5868 9.01076 10.8412 9.01076 11.1065C9.01076 11.3718 8.90538 11.6262 8.71779 11.8138C8.53021 12.0014 8.27579 12.1067 8.01051 12.1067C7.74523 12.1067 7.49081 12.0014 7.30323 11.8138C7.11564 11.6262 7.01026 11.3718 7.01026 11.1065Z" fill="#4C4C4C"/>
<path fill-rule="evenodd" clip-rule="evenodd" d="M3.51001 5.606V6.106H2.01001L1.51001 6.606V15.606L2.01001 16.106H14.01L14.51 15.606V6.606L14.01 6.106H12.51V5.606C12.51 4.41252 12.0359 3.26793 11.192 2.42401C10.3481 1.5801 9.20348 1.106 8.01001 1.106C6.81654 1.106 5.67194 1.5801 4.82803 2.42401C3.98412 3.26793 3.51001 4.41252 3.51001 5.606ZM8.01001 2.106C7.08175 2.106 6.19151 2.47474 5.53514 3.13112C4.87876 3.7875 4.51001 4.67774 4.51001 5.606V6.106H11.51V5.606C11.51 4.67774 11.1413 3.7875 10.4849 3.13112C9.82851 2.47474 8.93827 2.106 8.01001 2.106ZM2.51001 7.106V15.106H13.51V7.106H2.51001Z" fill="#4C4C4C"/>
</g>
<defs>
<clipPath id="clip0_51_3656">
<rect width="16" height="16" fill="white" transform="translate(0.0100098 0.605995)"/>
</clipPath>
</defs>
</svg>
