<svg width="40" height="40" viewBox="0 0 40 40" fill="none" xmlns="http://www.w3.org/2000/svg">
<g filter="url(#filter0_d_51_3488)">
<rect x="3" y="3" width="32" height="32" rx="4" fill="#F7F7F7" shape-rendering="crispEdges"/>
<path d="M13.6667 23.2564V14.7436C13.6667 14.4474 13.7721 14.1939 13.983 13.983C14.1939 13.7721 14.4474 13.6667 14.7436 13.6667H23.2564C23.5526 13.6667 23.8061 13.7721 24.017 13.983C24.2279 14.1939 24.3333 14.4474 24.3333 14.7436V23.2564C24.3333 23.5526 24.2279 23.8061 24.017 24.017C23.8061 24.2279 23.5526 24.3333 23.2564 24.3333H14.7436C14.4474 24.3333 14.1939 24.2279 13.983 24.017C13.7721 23.8061 13.6667 23.5526 13.6667 23.2564ZM14.3333 17.1026H23.6667V14.7436C23.6667 14.6239 23.6282 14.5256 23.5513 14.4487C23.4744 14.3718 23.3761 14.3333 23.2564 14.3333H14.7436C14.6239 14.3333 14.5256 14.3718 14.4487 14.4487C14.3718 14.5256 14.3333 14.6239 14.3333 14.7436V17.1026ZM17.6654 20.3846H20.3346V17.7692H17.6654V20.3846ZM17.6654 23.6667H20.3346V21.0513H17.6654V23.6667ZM14.3333 20.3846H16.9987V17.7692H14.3333V20.3846ZM21.0013 20.3846H23.6667V17.7692H21.0013V20.3846ZM14.7436 23.6667H16.9987V21.0513H14.3333V23.2564C14.3333 23.3761 14.3718 23.4744 14.4487 23.5513C14.5256 23.6282 14.6239 23.6667 14.7436 23.6667ZM21.0013 23.6667H23.2564C23.3761 23.6667 23.4744 23.6282 23.5513 23.5513C23.6282 23.4744 23.6667 23.3761 23.6667 23.2564V21.0513H21.0013V23.6667Z" fill="#4C4C4C"/>
</g>
<defs>
<filter id="filter0_d_51_3488" x="0" y="0" width="40" height="40" filterUnits="userSpaceOnUse" color-interpolation-filters="sRGB">
<feFlood flood-opacity="0" result="BackgroundImageFix"/>
<feColorMatrix in="SourceAlpha" type="matrix" values="0 0 0 0 0 0 0 0 0 0 0 0 0 0 0 0 0 0 127 0" result="hardAlpha"/>
<feOffset dx="1" dy="1"/>
<feGaussianBlur stdDeviation="2"/>
<feComposite in2="hardAlpha" operator="out"/>
<feColorMatrix type="matrix" values="0 0 0 0 0.917647 0 0 0 0 0.917647 0 0 0 0 0.917647 0 0 0 1 0"/>
<feBlend mode="normal" in2="BackgroundImageFix" result="effect1_dropShadow_51_3488"/>
<feBlend mode="normal" in="SourceGraphic" in2="effect1_dropShadow_51_3488" result="shape"/>
</filter>
</defs>
</svg>
