<svg focusable="false" viewBox="0 0 16 16" aria-hidden="true" xmlns="http://www.w3.org/2000/svg" width="16" height="16" fill="none"><g fill-rule="evenodd" clip-rule="evenodd" data-name="big-star">
<path d="M3.596 7A4.5 4.5 0 0 0 7 3.596 4.5 4.5 0 0 0 10.404 7 4.5 4.5 0 0 0 7 10.404 4.5 4.5 0 0 0 3.596 7Z"></path>
<path d="m6.51 1-.47 2.31a3.5 3.5 0 0 1-2.73 2.729L1 6.51v.98l2.31.471a3.5 3.5 0 0 1 2.729 2.73L6.51 13h.98l.471-2.31a3.5 3.5 0 0 1 2.73-2.729L13 7.49v-.98l-2.31-.471a3.5 3.5 0 0 1-2.729-2.73L7.49 1h-.98ZM3.596 7A4.5 4.5 0 0 0 7 3.596 4.5 4.5 0 0 0 10.404 7 4.5 4.5 0 0 0 7 10.404 4.5 4.5 0 0 0 3.596 7Z" data-test="two" fill="rgb(58, 3, 45)"></path></g>
<path d="m12.1 10.962.196-.962h.408l.196.962c.117.573.565 1.02 1.138 1.138l.962.196v.408l-.962.196a1.458 1.458 0 0 0-1.138 1.138l-.196.962h-.408l-.196-.962a1.458 1.458 0 0 0-1.138-1.138L10 12.704v-.408l.962-.196a1.458 1.458 0 0 0 1.138-1.138Z" data-name="medium-star" fill="rgb(58, 3, 45)"></path>
<path d="m12.26 2.077.117-.577h.245l.118.577c.07.344.339.613.683.683l.577.118v.244l-.577.118a.875.875 0 0 0-.683.683l-.117.577h-.245l-.118-.577a.875.875 0 0 0-.683-.683L11 3.122v-.244l.577-.118a.875.875 0 0 0 .683-.683Z" data-name="small-star" fill="rgb(58, 3, 45)"></path>
</svg>