<svg width="17" height="17" viewBox="0 0 17 17" fill="none" xmlns="http://www.w3.org/2000/svg">
<g clip-path="url(#clip0_51_3602)">
<mask id="mask0_51_3602" style="mask-type:luminance" maskUnits="userSpaceOnUse" x="0" y="0" width="17" height="17">
<path d="M0.640137 0.605995H16.6401V16.606H0.640137V0.605995Z" fill="white"/>
</mask>
<g mask="url(#mask0_51_3602)">
<path fill-rule="evenodd" clip-rule="evenodd" d="M8.20207 8.10299C10.0581 6.24699 13.0121 5.97099 15.1431 8.10299C17.2741 10.233 16.9991 13.188 15.1431 15.043C14.2581 15.929 13.3921 16.417 12.6011 16.561C11.7991 16.707 11.0881 16.491 10.6001 16.003C10.2571 15.66 10.2391 15.223 10.2901 14.882C10.3331 14.6 10.4371 14.292 10.5271 14.028L10.5691 13.903C10.6751 13.585 10.7491 13.325 10.7571 13.102C10.7651 12.902 10.7191 12.765 10.6001 12.646C10.4811 12.527 10.3441 12.481 10.1441 12.489C9.92107 12.497 9.66107 12.571 9.34407 12.677L9.21807 12.719C8.95507 12.809 8.64607 12.913 8.36407 12.956C8.02207 13.007 7.58607 12.989 7.24307 12.646C6.75507 12.158 6.53907 11.446 6.68507 10.645C6.82907 9.85499 7.31707 8.98799 8.20207 8.10299ZM14.4361 8.80999C12.7311 7.10499 10.4111 7.30799 8.90907 8.80999C8.11607 9.60299 7.76507 10.295 7.66907 10.823C7.57507 11.34 7.71907 11.708 7.95007 11.939C7.96707 11.956 8.01007 11.998 8.21507 11.967C8.40207 11.939 8.61207 11.867 8.88407 11.777L9.02707 11.728C9.33907 11.624 9.72307 11.504 10.1071 11.489C10.5141 11.474 10.9471 11.579 11.3071 11.939C11.6671 12.299 11.7721 12.732 11.7571 13.139C11.7421 13.523 11.6211 13.908 11.5171 14.219L11.4701 14.362C11.3781 14.634 11.3071 14.844 11.2801 15.031C11.2481 15.236 11.2901 15.279 11.3071 15.296C11.5371 15.526 11.9061 15.671 12.4231 15.577C12.9511 15.481 13.6431 15.13 14.4361 14.337C15.9381 12.835 16.1411 10.515 14.4361 8.80999Z" fill="#4C4C4C"/>
<path d="M10.9801 10.298C10.9028 10.3805 10.8097 10.4466 10.7063 10.4925C10.6029 10.5383 10.4914 10.5629 10.3783 10.5647C10.2652 10.5666 10.153 10.5458 10.0481 10.5034C9.94326 10.4611 9.84799 10.3981 9.76797 10.3182C9.68794 10.2383 9.62478 10.1431 9.58225 10.0383C9.53971 9.93356 9.51867 9.82131 9.52036 9.70824C9.52205 9.59517 9.54645 9.4836 9.5921 9.38014C9.63775 9.27669 9.70372 9.18346 9.7861 9.106C9.94499 8.95097 10.1585 8.86477 10.3805 8.86609C10.6025 8.8674 10.815 8.95612 10.9721 9.11303C11.1291 9.26993 11.218 9.48238 11.2195 9.70436C11.221 9.92635 11.135 10.139 10.9801 10.298ZM14.0741 13.393C13.9967 13.4754 13.9035 13.5415 13.8001 13.5872C13.6967 13.633 13.5851 13.6575 13.4721 13.6593C13.359 13.661 13.2467 13.6401 13.1419 13.5976C13.0371 13.5552 12.9419 13.4921 12.8619 13.4122C12.782 13.3322 12.7189 13.237 12.6765 13.1322C12.634 13.0274 12.6131 12.9151 12.6148 12.802C12.6166 12.689 12.6411 12.5774 12.6869 12.474C12.7326 12.3706 12.7987 12.2774 12.8811 12.2C13.0409 12.05 13.2529 11.968 13.4721 11.9715C13.6913 11.9749 13.9005 12.0635 14.0555 12.2186C14.2106 12.3736 14.2992 12.5828 14.3026 12.802C14.3061 13.0212 14.2241 13.2332 14.0741 13.393ZM13.5151 10.924C13.4377 11.0064 13.3445 11.0725 13.2411 11.1182C13.1377 11.164 13.0261 11.1885 12.9131 11.1903C12.8 11.192 12.6877 11.1711 12.5829 11.1286C12.4781 11.0862 12.3829 11.0231 12.3029 10.9432C12.223 10.8632 12.1599 10.768 12.1175 10.6632C12.075 10.5584 12.0541 10.4461 12.0558 10.333C12.0576 10.22 12.0821 10.1084 12.1279 10.005C12.1736 9.90156 12.2397 9.80839 12.3221 9.731C12.4819 9.58096 12.6939 9.499 12.9131 9.50246C13.1323 9.50593 13.3415 9.59454 13.4965 9.74956C13.6516 9.90457 13.7402 10.1138 13.7436 10.333C13.7471 10.5522 13.6651 10.7642 13.5151 10.924Z" fill="#4C4C4C"/>
<path fill-rule="evenodd" clip-rule="evenodd" d="M0.640137 15.106V2.106L1.14014 1.606H16.1401L16.6401 2.106V7.106L16.1401 7.606H15.6401V5.606H1.64014V14.606H8.64014V15.106L8.14014 15.606H1.14014L0.640137 15.106ZM15.6401 2.606H1.64014V4.606H15.6401V2.606Z" fill="#4C4C4C"/>
</g>
</g>
<defs>
<clipPath id="clip0_51_3602">
<rect width="16" height="16" fill="white" transform="translate(0.640137 0.605995)"/>
</clipPath>
</defs>
</svg>
